<?xml version="1.0" encoding="utf-8"?>
<!-- Generator: Adobe Illustrator 19.2.0, SVG Export Plug-In . SVG Version: 6.00 Build 0)  -->
<!DOCTYPE svg PUBLIC "-//W3C//DTD SVG 1.1//EN" "http://www.w3.org/Graphics/SVG/1.1/DTD/svg11.dtd">
<svg version="1.1" id="Layer_1" xmlns="http://www.w3.org/2000/svg" xmlns:xlink="http://www.w3.org/1999/xlink" x="0px" y="0px"
	 viewBox="0 0 12 12" enable-background="new 0 0 12 12" xml:space="preserve">
<g>
	<path fill="#FFFFFF" d="M2.8,5.7c0,1.4,1.4,2.5,3.2,2.5c0.4,0,0.8-0.1,1.2-0.2c0.4,0.3,1,0.7,1.6,0.7C8.5,8.5,8.4,7.9,8.4,7.5
		C8.9,7,9.2,6.4,9.2,5.7c0-1.4-1.4-2.5-3.2-2.5S2.8,4.3,2.8,5.7z"/>
</g>
<g>
	<path id="Twitter" fill="#FFFFFF" d="M7.5,7.5H6c-0.2,0-0.4-0.1-0.5-0.2C5.3,7.1,5.3,7,5.3,6.8V6.2h2.1c0.2,0,0.4-0.1,0.5-0.2
		C8,5.9,8.1,5.7,8.1,5.5C8.1,5.3,8,5.2,7.9,5C7.7,4.9,7.6,4.8,7.4,4.8H5.3V3.7c0-0.2-0.1-0.4-0.2-0.5C4.9,3.1,4.7,3,4.5,3
		C4.3,3,4.1,3.1,4,3.2C3.8,3.4,3.8,3.5,3.8,3.7v3c0,0.6,0.2,1.1,0.7,1.6C4.9,8.8,5.4,9,6,9h1.5C7.7,9,7.9,8.9,8,8.8
		c0.1-0.1,0.2-0.3,0.2-0.5C8.2,8,8.2,7.9,8,7.7C7.9,7.6,7.7,7.5,7.5,7.5z"/>
</g>
<path fill="#3B5999" d="M9,12H3c-1.6,0-3-1.3-3-3l0-6c0-1.6,1.3-3,3-3l6,0c1.6,0,3,1.3,3,3v6C12,10.7,10.7,12,9,12z"/>
<g>
	<path fill="#FFFFFF" d="M7.5,3L6.7,3C5.8,3,5.3,3.6,5.3,4.5v0.7H4.5c-0.1,0-0.1,0.1-0.1,0.1v1c0,0.1,0.1,0.1,0.1,0.1h0.8v2.5
		C5.3,9,5.3,9,5.4,9h1C6.5,9,6.5,9,6.5,8.9V6.4h0.9c0.1,0,0.1-0.1,0.1-0.1l0-1c0,0,0-0.1,0-0.1s-0.1,0-0.1,0H6.5V4.6
		c0-0.3,0.1-0.4,0.4-0.4l0.5,0c0.1,0,0.1-0.1,0.1-0.1V3.1C7.6,3,7.6,3,7.5,3z"/>
</g>
</svg>
