<?xml version="1.0" encoding="utf-8"?>
<!-- Generator: Adobe Illustrator 19.2.0, SVG Export Plug-In . SVG Version: 6.00 Build 0)  -->
<!DOCTYPE svg PUBLIC "-//W3C//DTD SVG 1.1//EN" "http://www.w3.org/Graphics/SVG/1.1/DTD/svg11.dtd">
<svg version="1.1" id="Layer_1" xmlns="http://www.w3.org/2000/svg" xmlns:xlink="http://www.w3.org/1999/xlink" x="0px" y="0px"
	 viewBox="0 0 12 12" enable-background="new 0 0 12 12" xml:space="preserve">
<path fill="#09B4E6" d="M9,12H3c-1.6,0-3-1.3-3-3l0-6c0-1.6,1.3-3,3-3l6,0c1.6,0,3,1.3,3,3v6C12,10.7,10.7,12,9,12z"/>
<g>
	<path fill="#FFFFFF" d="M2.8,5.7c0,1.4,1.4,2.5,3.2,2.5c0.4,0,0.8-0.1,1.2-0.2c0.4,0.3,1,0.7,1.6,0.7C8.5,8.5,8.4,7.9,8.4,7.5
		C8.9,7,9.2,6.4,9.2,5.7c0-1.4-1.4-2.5-3.2-2.5S2.8,4.3,2.8,5.7z"/>
</g>
</svg>
