<?xml version="1.0" standalone="no"?>
<!DOCTYPE svg PUBLIC "-//W3C//DTD SVG 1.1//EN" "http://www.w3.org/Graphics/SVG/1.1/DTD/svg11.dtd" >
<svg xmlns="http://www.w3.org/2000/svg">
<metadata></metadata>
<defs>
<font id="bubbledot_icg_fine_posregular" horiz-adv-x="1132" >
<font-face units-per-em="2048" ascent="1637" descent="-411" />
<missing-glyph horiz-adv-x="500" />
<glyph horiz-adv-x="0" />
<glyph unicode="&#xd;" />
<glyph unicode=" " />
<glyph unicode="!" d="M491 0v158h158v-158h-158zM491 379v156h158v-156h-158zM491 567v156h158v-156h-158zM491 756v156h158v-156h-158zM491 944v157h158v-157h-158zM491 1133v156h158v-156h-158z" />
<glyph unicode="&#x22;" d="M301 756v156h158v-156h-158zM301 944v157h158v-157h-158zM301 1133v156h158v-156h-158zM682 756v156h158v-156h-158zM682 944v157h158v-157h-158zM682 1133v156h158v-156h-158z" />
<glyph unicode="#" d="M111 190v156h158v-156h-158zM111 944v157h158v-157h-158zM301 0v158h158v-158h-158zM301 190v156h158v-156h-158zM301 379v156h158v-156h-158zM301 567v156h158v-156h-158zM301 756v156h158v-156h-158zM301 944v157h158v-157h-158zM301 1133v156h158v-156h-158zM491 190 v156h158v-156h-158zM491 944v157h158v-157h-158zM682 0v158h158v-158h-158zM682 190v156h158v-156h-158zM682 379v156h158v-156h-158zM682 567v156h158v-156h-158zM682 756v156h158v-156h-158zM682 944v157h158v-157h-158zM682 1133v156h158v-156h-158zM872 190v156h158 v-156h-158zM872 944v157h158v-157h-158z" />
<glyph unicode="$" d="M111 190v156h158v-156h-158zM111 756v156h158v-156h-158zM301 190v156h158v-156h-158zM301 567v156h158v-156h-158zM301 944v157h158v-157h-158zM491 0v158h158v-158h-158zM491 190v156h158v-156h-158zM491 379v156h158v-156h-158zM491 567v156h158v-156h-158zM491 756 v156h158v-156h-158zM491 944v157h158v-157h-158zM491 1133v156h158v-156h-158zM682 190v156h158v-156h-158zM682 567v156h158v-156h-158zM682 944v157h158v-157h-158zM872 379v156h158v-156h-158zM872 944v157h158v-157h-158z" />
<glyph unicode="%" d="M111 190v156h158v-156h-158zM111 944v157h158v-157h-158zM111 1133v156h158v-156h-158zM301 379v156h158v-156h-158zM301 944v157h158v-157h-158zM301 1133v156h158v-156h-158zM491 567v156h158v-156h-158zM682 0v158h158v-158h-158zM682 190v156h158v-156h-158zM682 756 v156h158v-156h-158zM872 0v158h158v-158h-158zM872 190v156h158v-156h-158zM872 944v157h158v-157h-158z" />
<glyph unicode="&#x26;" d="M111 190v156h158v-156h-158zM111 379v156h158v-156h-158zM111 756v156h158v-156h-158zM111 944v157h158v-157h-158zM301 0v158h158v-158h-158zM301 567v156h158v-156h-158zM301 1133v156h158v-156h-158zM491 0v158h158v-158h-158zM491 379v156h158v-156h-158zM491 756 v156h158v-156h-158zM491 1133v156h158v-156h-158zM682 190v156h158v-156h-158zM682 944v157h158v-157h-158zM872 0v158h158v-158h-158zM872 379v156h158v-156h-158z" />
<glyph unicode="'" d="M491 756v156h158v-156h-158zM491 944v157h158v-157h-158zM491 1133v156h158v-156h-158z" />
<glyph unicode="(" d="M301 379v156h158v-156h-158zM301 567v156h158v-156h-158zM301 756v156h158v-156h-158zM491 190v156h158v-156h-158zM491 944v157h158v-157h-158zM682 0v158h158v-158h-158zM682 1133v156h158v-156h-158z" />
<glyph unicode=")" d="M301 0v158h158v-158h-158zM301 1133v156h158v-156h-158zM491 190v156h158v-156h-158zM491 944v157h158v-157h-158zM682 379v156h158v-156h-158zM682 567v156h158v-156h-158zM682 756v156h158v-156h-158z" />
<glyph unicode="*" d="M111 379v156h158v-156h-158zM111 756v156h158v-156h-158zM301 567v156h158v-156h-158zM491 190v156h158v-156h-158zM491 379v156h158v-156h-158zM491 567v156h158v-156h-158zM491 756v156h158v-156h-158zM491 944v157h158v-157h-158zM682 567v156h158v-156h-158zM872 379 v156h158v-156h-158zM872 756v156h158v-156h-158z" />
<glyph unicode="+" d="M111 567v156h158v-156h-158zM301 567v156h158v-156h-158zM491 190v156h158v-156h-158zM491 379v156h158v-156h-158zM491 567v156h158v-156h-158zM491 756v156h158v-156h-158zM491 944v157h158v-157h-158zM682 567v156h158v-156h-158zM872 567v156h158v-156h-158z" />
<glyph unicode="," d="M301 0v156h158v-156h-158zM301 189v156h158v-156h-158zM301 -222h158v-158h-158v158zM491 0v156h158v-156h-158zM491 -34h158v-156h-158v156zM491 189v156h158v-156h-158z" />
<glyph unicode="-" d="M111 567v156h158v-156h-158zM301 567v156h158v-156h-158zM491 567v156h158v-156h-158zM682 567v156h158v-156h-158zM872 567v156h158v-156h-158z" />
<glyph unicode="." d="M301 0v158h158v-158h-158zM301 190v156h158v-156h-158zM491 0v158h158v-158h-158zM491 190v156h158v-156h-158z" />
<glyph unicode="/" d="M111 190v156h158v-156h-158zM301 379v156h158v-156h-158zM491 567v156h158v-156h-158zM682 756v156h158v-156h-158zM872 944v157h158v-157h-158z" />
<glyph unicode="0" d="M111 190v156h158v-156h-158zM111 379v156h158v-156h-158zM111 567v156h158v-156h-158zM111 756v156h158v-156h-158zM111 944v157h158v-157h-158zM301 0v158h158v-158h-158zM301 379v156h158v-156h-158zM301 1133v156h158v-156h-158zM491 0v158h158v-158h-158zM491 567 v156h158v-156h-158zM491 1133v156h158v-156h-158zM682 0v158h158v-158h-158zM682 756v156h158v-156h-158zM682 1133v156h158v-156h-158zM872 190v156h158v-156h-158zM872 379v156h158v-156h-158zM872 567v156h158v-156h-158zM872 756v156h158v-156h-158zM872 944v157h158 v-157h-158z" />
<glyph unicode="1" d="M301 0v158h158v-158h-158zM301 944v157h158v-157h-158zM491 0v158h158v-158h-158zM491 190v156h158v-156h-158zM491 379v156h158v-156h-158zM491 567v156h158v-156h-158zM491 756v156h158v-156h-158zM491 944v157h158v-157h-158zM491 1133v156h158v-156h-158zM682 0v158 h158v-158h-158z" />
<glyph unicode="2" d="M111 0v158h158v-158h-158zM111 944v157h158v-157h-158zM301 0v158h158v-158h-158zM301 190v156h158v-156h-158zM301 1133v156h158v-156h-158zM491 0v158h158v-158h-158zM491 379v156h158v-156h-158zM491 1133v156h158v-156h-158zM682 0v158h158v-158h-158zM682 567v156 h158v-156h-158zM682 1133v156h158v-156h-158zM872 0v158h158v-158h-158zM872 756v156h158v-156h-158zM872 944v157h158v-157h-158z" />
<glyph unicode="3" d="M111 0v158h158v-158h-158zM111 1133v156h158v-156h-158zM301 0v158h158v-158h-158zM301 567v156h158v-156h-158zM301 1133v156h158v-156h-158zM491 0v158h158v-158h-158zM491 567v156h158v-156h-158zM491 756v156h158v-156h-158zM491 1133v156h158v-156h-158zM682 0v158 h158v-158h-158zM682 567v156h158v-156h-158zM682 944v157h158v-157h-158zM682 1133v156h158v-156h-158zM872 190v156h158v-156h-158zM872 379v156h158v-156h-158zM872 1133v156h158v-156h-158z" />
<glyph unicode="4" d="M111 379v156h158v-156h-158zM111 567v156h158v-156h-158zM301 379v156h158v-156h-158zM301 756v156h158v-156h-158zM491 379v156h158v-156h-158zM491 944v157h158v-157h-158zM682 0v158h158v-158h-158zM682 190v156h158v-156h-158zM682 379v156h158v-156h-158zM682 567 v156h158v-156h-158zM682 756v156h158v-156h-158zM682 944v157h158v-157h-158zM682 1133v156h158v-156h-158zM872 379v156h158v-156h-158z" />
<glyph unicode="5" d="M111 190v156h158v-156h-158zM111 756v156h158v-156h-158zM111 944v157h158v-157h-158zM111 1133v156h158v-156h-158zM301 0v158h158v-158h-158zM301 756v156h158v-156h-158zM301 1133v156h158v-156h-158zM491 0v158h158v-158h-158zM491 756v156h158v-156h-158zM491 1133 v156h158v-156h-158zM682 0v158h158v-158h-158zM682 756v156h158v-156h-158zM682 1133v156h158v-156h-158zM872 190v156h158v-156h-158zM872 379v156h158v-156h-158zM872 567v156h158v-156h-158zM872 1133v156h158v-156h-158z" />
<glyph unicode="6" d="M111 190v156h158v-156h-158zM111 379v156h158v-156h-158zM111 567v156h158v-156h-158zM111 756v156h158v-156h-158zM301 0v158h158v-158h-158zM301 567v156h158v-156h-158zM301 944v157h158v-157h-158zM491 0v158h158v-158h-158zM491 567v156h158v-156h-158zM491 1133 v156h158v-156h-158zM682 0v158h158v-158h-158zM682 567v156h158v-156h-158zM682 1133v156h158v-156h-158zM872 190v156h158v-156h-158zM872 379v156h158v-156h-158z" />
<glyph unicode="7" d="M111 1133v156h158v-156h-158zM301 1133v156h158v-156h-158zM491 0v158h158v-158h-158zM491 190v156h158v-156h-158zM491 379v156h158v-156h-158zM491 567v156h158v-156h-158zM491 1133v156h158v-156h-158zM682 756v156h158v-156h-158zM682 1133v156h158v-156h-158z M872 944v157h158v-157h-158zM872 1133v156h158v-156h-158z" />
<glyph unicode="8" d="M111 190v156h158v-156h-158zM111 379v156h158v-156h-158zM111 756v156h158v-156h-158zM111 944v157h158v-157h-158zM301 0v158h158v-158h-158zM301 567v156h158v-156h-158zM301 1133v156h158v-156h-158zM491 0v158h158v-158h-158zM491 567v156h158v-156h-158zM491 1133 v156h158v-156h-158zM682 0v158h158v-158h-158zM682 567v156h158v-156h-158zM682 1133v156h158v-156h-158zM872 190v156h158v-156h-158zM872 379v156h158v-156h-158zM872 756v156h158v-156h-158zM872 944v157h158v-157h-158z" />
<glyph unicode="9" d="M111 756v156h158v-156h-158zM111 944v157h158v-157h-158zM301 0v158h158v-158h-158zM301 567v156h158v-156h-158zM301 1133v156h158v-156h-158zM491 0v158h158v-158h-158zM491 567v156h158v-156h-158zM491 1133v156h158v-156h-158zM682 190v156h158v-156h-158zM682 567 v156h158v-156h-158zM682 1133v156h158v-156h-158zM872 379v156h158v-156h-158zM872 567v156h158v-156h-158zM872 756v156h158v-156h-158zM872 944v157h158v-157h-158z" />
<glyph unicode=":" d="M301 0v156h158v-156h-158zM301 189v156h158v-156h-158zM301 756v156h158v-156h-158zM301 944v157h158v-157h-158zM491 0v156h158v-156h-158zM491 189v156h158v-156h-158zM491 756v156h158v-156h-158zM491 944v157h158v-157h-158z" />
<glyph unicode=";" d="M301 0v156h158v-156h-158zM301 189v156h158v-156h-158zM301 -222h158v-158h-158v158zM301 756v156h158v-156h-158zM301 944v157h158v-157h-158zM491 0v156h158v-156h-158zM491 -34h158v-156h-158v156zM491 189v156h158v-156h-158zM491 756v156h158v-156h-158zM491 944 v157h158v-157h-158z" />
<glyph unicode="&#x3c;" d="M111 567v156h158v-156h-158zM301 379v156h158v-156h-158zM301 756v156h158v-156h-158zM491 190v156h158v-156h-158zM491 944v157h158v-157h-158zM682 0v158h158v-158h-158zM682 1133v156h158v-156h-158z" />
<glyph unicode="=" d="M111 379v156h158v-156h-158zM111 756v156h158v-156h-158zM301 379v156h158v-156h-158zM301 756v156h158v-156h-158zM491 379v156h158v-156h-158zM491 756v156h158v-156h-158zM682 379v156h158v-156h-158zM682 756v156h158v-156h-158zM872 379v156h158v-156h-158zM872 756 v156h158v-156h-158z" />
<glyph unicode="&#x3e;" d="M301 0v158h158v-158h-158zM301 1133v156h158v-156h-158zM491 190v156h158v-156h-158zM491 944v157h158v-157h-158zM682 379v156h158v-156h-158zM682 756v156h158v-156h-158zM872 567v156h158v-156h-158z" />
<glyph unicode="?" d="M111 944v157h158v-157h-158zM301 1133v156h158v-156h-158zM491 0v158h158v-158h-158zM491 379v156h158v-156h-158zM491 1133v156h158v-156h-158zM682 567v156h158v-156h-158zM682 1133v156h158v-156h-158zM872 756v156h158v-156h-158zM872 944v157h158v-157h-158z" />
<glyph unicode="@" d="M111 190v156h158v-156h-158zM111 379v156h158v-156h-158zM111 944v157h158v-157h-158zM301 0v158h158v-158h-158zM301 567v156h158v-156h-158zM301 1133v156h158v-156h-158zM491 0v158h158v-158h-158zM491 190v156h158v-156h-158zM491 379v156h158v-156h-158zM491 567 v156h158v-156h-158zM491 1133v156h158v-156h-158zM682 0v158h158v-158h-158zM682 1133v156h158v-156h-158zM872 190v156h158v-156h-158zM872 379v156h158v-156h-158zM872 567v156h158v-156h-158zM872 756v156h158v-156h-158zM872 944v157h158v-157h-158z" />
<glyph unicode="A" d="M111 0v158h158v-158h-158zM111 190v156h158v-156h-158zM111 379v156h158v-156h-158zM111 567v156h158v-156h-158zM111 756v156h158v-156h-158zM111 944v157h158v-157h-158zM301 567v156h158v-156h-158zM301 1133v156h158v-156h-158zM491 567v156h158v-156h-158zM491 1133 v156h158v-156h-158zM682 567v156h158v-156h-158zM682 1133v156h158v-156h-158zM872 0v158h158v-158h-158zM872 190v156h158v-156h-158zM872 379v156h158v-156h-158zM872 567v156h158v-156h-158zM872 756v156h158v-156h-158zM872 944v157h158v-157h-158z" />
<glyph unicode="B" d="M111 0v158h158v-158h-158zM111 190v156h158v-156h-158zM111 379v156h158v-156h-158zM111 567v156h158v-156h-158zM111 756v156h158v-156h-158zM111 944v157h158v-157h-158zM111 1133v156h158v-156h-158zM301 0v158h158v-158h-158zM301 567v156h158v-156h-158zM301 1133 v156h158v-156h-158zM491 0v158h158v-158h-158zM491 567v156h158v-156h-158zM491 1133v156h158v-156h-158zM682 0v158h158v-158h-158zM682 567v156h158v-156h-158zM682 1133v156h158v-156h-158zM872 190v156h158v-156h-158zM872 379v156h158v-156h-158zM872 756v156h158v-156 h-158zM872 944v157h158v-157h-158z" />
<glyph unicode="C" d="M111 190v156h158v-156h-158zM111 379v156h158v-156h-158zM111 567v156h158v-156h-158zM111 756v156h158v-156h-158zM111 944v157h158v-157h-158zM301 0v158h158v-158h-158zM301 1133v156h158v-156h-158zM491 0v158h158v-158h-158zM491 1133v156h158v-156h-158zM682 0v158 h158v-158h-158zM682 1133v156h158v-156h-158zM872 190v156h158v-156h-158zM872 944v157h158v-157h-158z" />
<glyph unicode="D" d="M111 0v158h158v-158h-158zM111 190v156h158v-156h-158zM111 379v156h158v-156h-158zM111 567v156h158v-156h-158zM111 756v156h158v-156h-158zM111 944v157h158v-157h-158zM111 1133v156h158v-156h-158zM301 0v158h158v-158h-158zM301 1133v156h158v-156h-158zM491 0v158 h158v-158h-158zM491 1133v156h158v-156h-158zM682 0v158h158v-158h-158zM682 1133v156h158v-156h-158zM872 190v156h158v-156h-158zM872 379v156h158v-156h-158zM872 567v156h158v-156h-158zM872 756v156h158v-156h-158zM872 944v157h158v-157h-158z" />
<glyph unicode="E" d="M111 0v158h158v-158h-158zM111 190v156h158v-156h-158zM111 379v156h158v-156h-158zM111 567v156h158v-156h-158zM111 756v156h158v-156h-158zM111 944v157h158v-157h-158zM111 1133v156h158v-156h-158zM301 0v158h158v-158h-158zM301 567v156h158v-156h-158zM301 1133 v156h158v-156h-158zM491 0v158h158v-158h-158zM491 567v156h158v-156h-158zM491 1133v156h158v-156h-158zM682 0v158h158v-158h-158zM682 567v156h158v-156h-158zM682 1133v156h158v-156h-158zM872 0v158h158v-158h-158zM872 1133v156h158v-156h-158z" />
<glyph unicode="F" d="M111 0v158h158v-158h-158zM111 190v156h158v-156h-158zM111 379v156h158v-156h-158zM111 567v156h158v-156h-158zM111 756v156h158v-156h-158zM111 944v157h158v-157h-158zM111 1133v156h158v-156h-158zM301 567v156h158v-156h-158zM301 1133v156h158v-156h-158zM491 567 v156h158v-156h-158zM491 1133v156h158v-156h-158zM682 567v156h158v-156h-158zM682 1133v156h158v-156h-158zM872 1133v156h158v-156h-158z" />
<glyph unicode="G" d="M111 190v156h158v-156h-158zM111 379v156h158v-156h-158zM111 567v156h158v-156h-158zM111 756v156h158v-156h-158zM111 944v157h158v-157h-158zM301 0v158h158v-158h-158zM301 1133v156h158v-156h-158zM491 0v158h158v-158h-158zM491 567v156h158v-156h-158zM491 1133 v156h158v-156h-158zM682 0v158h158v-158h-158zM682 567v156h158v-156h-158zM682 1133v156h158v-156h-158zM872 0v158h158v-158h-158zM872 190v156h158v-156h-158zM872 379v156h158v-156h-158zM872 567v156h158v-156h-158zM872 944v157h158v-157h-158z" />
<glyph unicode="H" d="M111 0v158h158v-158h-158zM111 190v156h158v-156h-158zM111 379v156h158v-156h-158zM111 567v156h158v-156h-158zM111 756v156h158v-156h-158zM111 944v157h158v-157h-158zM111 1133v156h158v-156h-158zM301 567v156h158v-156h-158zM491 567v156h158v-156h-158zM682 567 v156h158v-156h-158zM872 0v158h158v-158h-158zM872 190v156h158v-156h-158zM872 379v156h158v-156h-158zM872 567v156h158v-156h-158zM872 756v156h158v-156h-158zM872 944v157h158v-157h-158zM872 1133v156h158v-156h-158z" />
<glyph unicode="I" d="M301 0v158h158v-158h-158zM301 1133v156h158v-156h-158zM491 0v158h158v-158h-158zM491 190v156h158v-156h-158zM491 379v156h158v-156h-158zM491 567v156h158v-156h-158zM491 756v156h158v-156h-158zM491 944v157h158v-157h-158zM491 1133v156h158v-156h-158zM682 0v158 h158v-158h-158zM682 1133v156h158v-156h-158z" />
<glyph unicode="J" d="M111 190v156h158v-156h-158zM111 379v156h158v-156h-158zM301 0v158h158v-158h-158zM491 0v158h158v-158h-158zM682 0v158h158v-158h-158zM872 190v156h158v-156h-158zM872 379v156h158v-156h-158zM872 567v156h158v-156h-158zM872 756v156h158v-156h-158zM872 944v157 h158v-157h-158zM872 1133v156h158v-156h-158z" />
<glyph unicode="K" d="M111 0v158h158v-158h-158zM111 190v156h158v-156h-158zM111 379v156h158v-156h-158zM111 567v156h158v-156h-158zM111 756v156h158v-156h-158zM111 944v157h158v-157h-158zM111 1133v156h158v-156h-158zM301 567v156h158v-156h-158zM491 379v156h158v-156h-158zM491 756 v156h158v-156h-158zM682 190v156h158v-156h-158zM682 944v157h158v-157h-158zM872 0v158h158v-158h-158zM872 1133v156h158v-156h-158z" />
<glyph unicode="L" d="M111 0v158h158v-158h-158zM111 190v156h158v-156h-158zM111 379v156h158v-156h-158zM111 567v156h158v-156h-158zM111 756v156h158v-156h-158zM111 944v157h158v-157h-158zM111 1133v156h158v-156h-158zM301 0v158h158v-158h-158zM491 0v158h158v-158h-158zM682 0v158 h158v-158h-158zM872 0v158h158v-158h-158z" />
<glyph unicode="M" d="M111 0v158h158v-158h-158zM111 190v156h158v-156h-158zM111 379v156h158v-156h-158zM111 567v156h158v-156h-158zM111 756v156h158v-156h-158zM111 944v157h158v-157h-158zM111 1133v156h158v-156h-158zM301 944v157h158v-157h-158zM491 567v156h158v-156h-158zM491 756 v156h158v-156h-158zM682 944v157h158v-157h-158zM872 0v158h158v-158h-158zM872 190v156h158v-156h-158zM872 379v156h158v-156h-158zM872 567v156h158v-156h-158zM872 756v156h158v-156h-158zM872 944v157h158v-157h-158zM872 1133v156h158v-156h-158z" />
<glyph unicode="N" d="M111 0v158h158v-158h-158zM111 190v156h158v-156h-158zM111 379v156h158v-156h-158zM111 567v156h158v-156h-158zM111 756v156h158v-156h-158zM111 944v157h158v-157h-158zM111 1133v156h158v-156h-158zM301 756v156h158v-156h-158zM491 567v156h158v-156h-158zM682 379 v156h158v-156h-158zM872 0v158h158v-158h-158zM872 190v156h158v-156h-158zM872 379v156h158v-156h-158zM872 567v156h158v-156h-158zM872 756v156h158v-156h-158zM872 944v157h158v-157h-158zM872 1133v156h158v-156h-158z" />
<glyph unicode="O" d="M111 190v156h158v-156h-158zM111 379v156h158v-156h-158zM111 567v156h158v-156h-158zM111 756v156h158v-156h-158zM111 944v157h158v-157h-158zM301 0v158h158v-158h-158zM301 1133v156h158v-156h-158zM491 0v158h158v-158h-158zM491 1133v156h158v-156h-158zM682 0v158 h158v-158h-158zM682 1133v156h158v-156h-158zM872 190v156h158v-156h-158zM872 379v156h158v-156h-158zM872 567v156h158v-156h-158zM872 756v156h158v-156h-158zM872 944v157h158v-157h-158z" />
<glyph unicode="P" d="M111 0v158h158v-158h-158zM111 190v156h158v-156h-158zM111 379v156h158v-156h-158zM111 567v156h158v-156h-158zM111 756v156h158v-156h-158zM111 944v157h158v-157h-158zM111 1133v156h158v-156h-158zM301 567v156h158v-156h-158zM301 1133v156h158v-156h-158zM491 567 v156h158v-156h-158zM491 1133v156h158v-156h-158zM682 567v156h158v-156h-158zM682 1133v156h158v-156h-158zM872 756v156h158v-156h-158zM872 944v157h158v-157h-158z" />
<glyph unicode="Q" d="M111 190v156h158v-156h-158zM111 379v156h158v-156h-158zM111 567v156h158v-156h-158zM111 756v156h158v-156h-158zM111 944v157h158v-157h-158zM301 0v158h158v-158h-158zM301 1133v156h158v-156h-158zM491 0v158h158v-158h-158zM491 379v156h158v-156h-158zM491 1133 v156h158v-156h-158zM682 190v156h158v-156h-158zM682 1133v156h158v-156h-158zM872 0v158h158v-158h-158zM872 379v156h158v-156h-158zM872 567v156h158v-156h-158zM872 756v156h158v-156h-158zM872 944v157h158v-157h-158z" />
<glyph unicode="R" d="M111 0v158h158v-158h-158zM111 190v156h158v-156h-158zM111 379v156h158v-156h-158zM111 567v156h158v-156h-158zM111 756v156h158v-156h-158zM111 944v157h158v-157h-158zM111 1133v156h158v-156h-158zM301 567v156h158v-156h-158zM301 1133v156h158v-156h-158zM491 379 v156h158v-156h-158zM491 567v156h158v-156h-158zM491 1133v156h158v-156h-158zM682 190v156h158v-156h-158zM682 567v156h158v-156h-158zM682 1133v156h158v-156h-158zM872 0v158h158v-158h-158zM872 756v156h158v-156h-158zM872 944v157h158v-157h-158z" />
<glyph unicode="S" d="M111 190v156h158v-156h-158zM111 756v156h158v-156h-158zM111 944v157h158v-157h-158zM301 0v158h158v-158h-158zM301 567v156h158v-156h-158zM301 1133v156h158v-156h-158zM491 0v158h158v-158h-158zM491 567v156h158v-156h-158zM491 1133v156h158v-156h-158zM682 0v158 h158v-158h-158zM682 567v156h158v-156h-158zM682 1133v156h158v-156h-158zM872 190v156h158v-156h-158zM872 379v156h158v-156h-158zM872 944v157h158v-157h-158z" />
<glyph unicode="T" d="M111 1133v156h158v-156h-158zM301 1133v156h158v-156h-158zM491 0v158h158v-158h-158zM491 190v156h158v-156h-158zM491 379v156h158v-156h-158zM491 567v156h158v-156h-158zM491 756v156h158v-156h-158zM491 944v157h158v-157h-158zM491 1133v156h158v-156h-158z M682 1133v156h158v-156h-158zM872 1133v156h158v-156h-158z" />
<glyph unicode="U" d="M111 190v156h158v-156h-158zM111 379v156h158v-156h-158zM111 567v156h158v-156h-158zM111 756v156h158v-156h-158zM111 944v157h158v-157h-158zM111 1133v156h158v-156h-158zM301 0v158h158v-158h-158zM491 0v158h158v-158h-158zM682 0v158h158v-158h-158zM872 190v156 h158v-156h-158zM872 379v156h158v-156h-158zM872 567v156h158v-156h-158zM872 756v156h158v-156h-158zM872 944v157h158v-157h-158zM872 1133v156h158v-156h-158z" />
<glyph unicode="V" d="M111 379v156h158v-156h-158zM111 567v156h158v-156h-158zM111 756v156h158v-156h-158zM111 944v157h158v-157h-158zM111 1133v156h158v-156h-158zM301 190v156h158v-156h-158zM491 0v158h158v-158h-158zM682 190v156h158v-156h-158zM872 379v156h158v-156h-158zM872 567 v156h158v-156h-158zM872 756v156h158v-156h-158zM872 944v157h158v-157h-158zM872 1133v156h158v-156h-158z" />
<glyph unicode="W" d="M111 190v156h158v-156h-158zM111 379v156h158v-156h-158zM111 567v156h158v-156h-158zM111 756v156h158v-156h-158zM111 944v157h158v-157h-158zM111 1133v156h158v-156h-158zM301 0v158h158v-158h-158zM491 190v156h158v-156h-158zM491 379v156h158v-156h-158zM491 567 v156h158v-156h-158zM491 756v156h158v-156h-158zM682 0v158h158v-158h-158zM872 190v156h158v-156h-158zM872 379v156h158v-156h-158zM872 567v156h158v-156h-158zM872 756v156h158v-156h-158zM872 944v157h158v-157h-158zM872 1133v156h158v-156h-158z" />
<glyph unicode="X" d="M111 0v158h158v-158h-158zM111 190v156h158v-156h-158zM111 944v157h158v-157h-158zM111 1133v156h158v-156h-158zM301 379v156h158v-156h-158zM301 756v156h158v-156h-158zM491 567v156h158v-156h-158zM682 379v156h158v-156h-158zM682 756v156h158v-156h-158zM872 0 v158h158v-158h-158zM872 190v156h158v-156h-158zM872 944v157h158v-157h-158zM872 1133v156h158v-156h-158z" />
<glyph unicode="Y" d="M111 944v157h158v-157h-158zM111 1133v156h158v-156h-158zM301 756v156h158v-156h-158zM491 0v158h158v-158h-158zM491 190v156h158v-156h-158zM491 379v156h158v-156h-158zM491 567v156h158v-156h-158zM682 756v156h158v-156h-158zM872 944v157h158v-157h-158zM872 1133 v156h158v-156h-158z" />
<glyph unicode="Z" d="M111 0v158h158v-158h-158zM111 190v156h158v-156h-158zM111 1133v156h158v-156h-158zM301 0v158h158v-158h-158zM301 379v156h158v-156h-158zM301 1133v156h158v-156h-158zM491 0v158h158v-158h-158zM491 567v156h158v-156h-158zM491 1133v156h158v-156h-158zM682 0v158 h158v-158h-158zM682 756v156h158v-156h-158zM682 1133v156h158v-156h-158zM872 0v158h158v-158h-158zM872 944v157h158v-157h-158zM872 1133v156h158v-156h-158z" />
<glyph unicode="[" d="M301 0v158h158v-158h-158zM301 190v156h158v-156h-158zM301 379v156h158v-156h-158zM301 567v156h158v-156h-158zM301 756v156h158v-156h-158zM301 944v157h158v-157h-158zM301 1133v156h158v-156h-158zM491 0v158h158v-158h-158zM491 1133v156h158v-156h-158zM682 0v158 h158v-158h-158zM682 1133v156h158v-156h-158z" />
<glyph unicode="\" d="M111 944v157h158v-157h-158zM301 756v156h158v-156h-158zM491 567v156h158v-156h-158zM682 379v156h158v-156h-158zM872 190v156h158v-156h-158z" />
<glyph unicode="]" d="M301 0v158h158v-158h-158zM301 1133v156h158v-156h-158zM491 0v158h158v-158h-158zM491 1133v156h158v-156h-158zM682 0v158h158v-158h-158zM682 190v156h158v-156h-158zM682 379v156h158v-156h-158zM682 567v156h158v-156h-158zM682 756v156h158v-156h-158zM682 944v157 h158v-157h-158zM682 1133v156h158v-156h-158z" />
<glyph unicode="^" d="M111 756v156h158v-156h-158zM301 944v157h158v-157h-158zM491 1133v156h158v-156h-158zM682 944v157h158v-157h-158zM872 756v156h158v-156h-158z" />
<glyph unicode="_" d="M111 -32h158v-158h-158v158zM301 -32h158v-158h-158v158zM491 -32h158v-158h-158v158zM682 -32h158v-158h-158v158zM872 -32h158v-158h-158v158z" />
<glyph unicode="`" d="M301 1323v156h158v-156h-158zM491 1134v157h158v-157h-158z" />
<glyph unicode="a" d="M111 190v156h158v-156h-158zM301 0v158h158v-158h-158zM301 379v156h158v-156h-158zM301 756v156h158v-156h-158zM491 0v158h158v-158h-158zM491 379v156h158v-156h-158zM491 756v156h158v-156h-158zM682 0v158h158v-158h-158zM682 379v156h158v-156h-158zM682 756v156 h158v-156h-158zM872 0v158h158v-158h-158zM872 190v156h158v-156h-158zM872 379v156h158v-156h-158zM872 567v156h158v-156h-158z" />
<glyph unicode="b" d="M111 0v158h158v-158h-158zM111 190v156h158v-156h-158zM111 379v156h158v-156h-158zM111 567v156h158v-156h-158zM111 756v156h158v-156h-158zM111 944v157h158v-157h-158zM111 1133v156h158v-156h-158zM301 0v158h158v-158h-158zM301 567v156h158v-156h-158zM491 0v158 h158v-158h-158zM491 756v156h158v-156h-158zM682 0v158h158v-158h-158zM682 756v156h158v-156h-158zM872 190v156h158v-156h-158zM872 379v156h158v-156h-158zM872 567v156h158v-156h-158z" />
<glyph unicode="c" d="M111 190v156h158v-156h-158zM111 379v156h158v-156h-158zM111 567v156h158v-156h-158zM301 0v158h158v-158h-158zM301 756v156h158v-156h-158zM491 0v158h158v-158h-158zM491 756v156h158v-156h-158zM682 0v158h158v-158h-158zM682 756v156h158v-156h-158zM872 190v156 h158v-156h-158z" />
<glyph unicode="d" d="M111 190v156h158v-156h-158zM111 379v156h158v-156h-158zM111 567v156h158v-156h-158zM301 0v158h158v-158h-158zM301 756v156h158v-156h-158zM491 0v158h158v-158h-158zM491 756v156h158v-156h-158zM682 0v158h158v-158h-158zM682 567v156h158v-156h-158zM872 0v158h158 v-158h-158zM872 190v156h158v-156h-158zM872 379v156h158v-156h-158zM872 567v156h158v-156h-158zM872 756v156h158v-156h-158zM872 944v157h158v-157h-158zM872 1133v156h158v-156h-158z" />
<glyph unicode="e" d="M111 190v156h158v-156h-158zM111 379v156h158v-156h-158zM111 567v156h158v-156h-158zM301 0v158h158v-158h-158zM301 379v156h158v-156h-158zM301 756v156h158v-156h-158zM491 0v158h158v-158h-158zM491 379v156h158v-156h-158zM491 756v156h158v-156h-158zM682 0v158 h158v-158h-158zM682 379v156h158v-156h-158zM682 756v156h158v-156h-158zM872 379v156h158v-156h-158zM872 567v156h158v-156h-158z" />
<glyph unicode="f" d="M301 756v156h158v-156h-158zM491 0v158h158v-158h-158zM491 190v156h158v-156h-158zM491 379v156h158v-156h-158zM491 567v156h158v-156h-158zM491 756v156h158v-156h-158zM491 944v157h158v-157h-158zM682 756v156h158v-156h-158zM682 1133v156h158v-156h-158zM872 1133 v156h158v-156h-158z" />
<glyph unicode="g" d="M111 190v156h158v-156h-158zM111 -222h158v-158h-158v158zM111 379v156h158v-156h-158zM111 567v156h158v-156h-158zM301 0v158h158v-158h-158zM301 -222h158v-158h-158v158zM301 756v156h158v-156h-158zM491 0v158h158v-158h-158zM491 -222h158v-158h-158v158zM491 756 v156h158v-156h-158zM682 0v158h158v-158h-158zM682 -222h158v-158h-158v158zM682 756v156h158v-156h-158zM872 0v158h158v-158h-158zM872 -32h158v-158h-158v158zM872 190v156h158v-156h-158zM872 379v156h158v-156h-158zM872 567v156h158v-156h-158zM872 756v156h158v-156 h-158z" />
<glyph unicode="h" d="M111 0v158h158v-158h-158zM111 190v156h158v-156h-158zM111 379v156h158v-156h-158zM111 567v156h158v-156h-158zM111 756v156h158v-156h-158zM111 944v157h158v-157h-158zM111 1133v156h158v-156h-158zM301 567v156h158v-156h-158zM491 756v156h158v-156h-158zM682 756 v156h158v-156h-158zM872 0v158h158v-158h-158zM872 190v156h158v-156h-158zM872 379v156h158v-156h-158zM872 567v156h158v-156h-158z" />
<glyph unicode="i" d="M301 0v158h158v-158h-158zM301 756v156h158v-156h-158zM491 0v158h158v-158h-158zM491 190v156h158v-156h-158zM491 379v156h158v-156h-158zM491 567v156h158v-156h-158zM491 756v156h158v-156h-158zM491 1133v156h158v-156h-158zM682 0v158h158v-158h-158z" />
<glyph unicode="j" d="M111 -32h158v-158h-158v158zM301 -222h158v-158h-158v158zM491 -222h158v-158h-158v158zM491 756v156h158v-156h-158zM682 0v158h158v-158h-158zM682 -32h158v-158h-158v158zM682 190v156h158v-156h-158zM682 379v156h158v-156h-158zM682 567v156h158v-156h-158zM682 756 v156h158v-156h-158zM682 1133v156h158v-156h-158z" />
<glyph unicode="k" d="M111 0v158h158v-158h-158zM111 190v156h158v-156h-158zM111 379v156h158v-156h-158zM111 567v156h158v-156h-158zM111 756v156h158v-156h-158zM111 944v157h158v-157h-158zM111 1133v156h158v-156h-158zM301 379v156h158v-156h-158zM491 190v156h158v-156h-158zM491 567 v156h158v-156h-158zM682 0v158h158v-158h-158zM682 756v156h158v-156h-158z" />
<glyph unicode="l" d="M301 0v158h158v-158h-158zM301 1133v156h158v-156h-158zM491 0v158h158v-158h-158zM491 190v156h158v-156h-158zM491 379v156h158v-156h-158zM491 567v156h158v-156h-158zM491 756v156h158v-156h-158zM491 944v157h158v-157h-158zM491 1133v156h158v-156h-158zM682 0v158 h158v-158h-158z" />
<glyph unicode="m" d="M111 0v158h158v-158h-158zM111 190v156h158v-156h-158zM111 379v156h158v-156h-158zM111 567v156h158v-156h-158zM111 756v156h158v-156h-158zM301 756v156h158v-156h-158zM491 0v158h158v-158h-158zM491 190v156h158v-156h-158zM491 379v156h158v-156h-158zM491 567v156 h158v-156h-158zM682 756v156h158v-156h-158zM872 0v158h158v-158h-158zM872 190v156h158v-156h-158zM872 379v156h158v-156h-158zM872 567v156h158v-156h-158z" />
<glyph unicode="n" d="M111 0v158h158v-158h-158zM111 190v156h158v-156h-158zM111 379v156h158v-156h-158zM111 567v156h158v-156h-158zM111 756v156h158v-156h-158zM301 567v156h158v-156h-158zM491 756v156h158v-156h-158zM682 756v156h158v-156h-158zM872 0v158h158v-158h-158zM872 190v156 h158v-156h-158zM872 379v156h158v-156h-158zM872 567v156h158v-156h-158z" />
<glyph unicode="o" d="M111 190v156h158v-156h-158zM111 379v156h158v-156h-158zM111 567v156h158v-156h-158zM301 0v158h158v-158h-158zM301 756v156h158v-156h-158zM491 0v158h158v-158h-158zM491 756v156h158v-156h-158zM682 0v158h158v-158h-158zM682 756v156h158v-156h-158zM872 190v156 h158v-156h-158zM872 379v156h158v-156h-158zM872 567v156h158v-156h-158z" />
<glyph unicode="p" d="M111 0v158h158v-158h-158zM111 -32h158v-158h-158v158zM111 190v156h158v-156h-158zM111 -222h158v-158h-158v158zM111 379v156h158v-156h-158zM111 567v156h158v-156h-158zM111 756v156h158v-156h-158zM301 0v158h158v-158h-158zM301 567v156h158v-156h-158zM491 0v158 h158v-158h-158zM491 756v156h158v-156h-158zM682 0v158h158v-158h-158zM682 756v156h158v-156h-158zM872 190v156h158v-156h-158zM872 379v156h158v-156h-158zM872 567v156h158v-156h-158z" />
<glyph unicode="q" d="M111 190v156h158v-156h-158zM111 379v156h158v-156h-158zM111 567v156h158v-156h-158zM301 0v158h158v-158h-158zM301 756v156h158v-156h-158zM491 0v158h158v-158h-158zM491 756v156h158v-156h-158zM682 0v158h158v-158h-158zM682 567v156h158v-156h-158zM872 0v158h158 v-158h-158zM872 -32h158v-158h-158v158zM872 190v156h158v-156h-158zM872 -222h158v-158h-158v158zM872 379v156h158v-156h-158zM872 567v156h158v-156h-158zM872 756v156h158v-156h-158z" />
<glyph unicode="r" d="M111 0v158h158v-158h-158zM111 190v156h158v-156h-158zM111 379v156h158v-156h-158zM111 567v156h158v-156h-158zM111 756v156h158v-156h-158zM301 567v156h158v-156h-158zM491 756v156h158v-156h-158zM682 756v156h158v-156h-158zM872 567v156h158v-156h-158z" />
<glyph unicode="s" d="M111 0v158h158v-158h-158zM111 567v156h158v-156h-158zM301 0v158h158v-158h-158zM301 379v156h158v-156h-158zM301 756v156h158v-156h-158zM491 0v158h158v-158h-158zM491 379v156h158v-156h-158zM491 756v156h158v-156h-158zM682 0v158h158v-158h-158zM682 379v156h158 v-156h-158zM682 756v156h158v-156h-158zM872 190v156h158v-156h-158zM872 756v156h158v-156h-158z" />
<glyph unicode="t" d="M301 756v156h158v-156h-158zM491 190v156h158v-156h-158zM491 379v156h158v-156h-158zM491 567v156h158v-156h-158zM491 756v156h158v-156h-158zM491 944v157h158v-157h-158zM491 1133v156h158v-156h-158zM682 0v158h158v-158h-158zM682 756v156h158v-156h-158zM872 190 v156h158v-156h-158z" />
<glyph unicode="u" d="M111 190v156h158v-156h-158zM111 379v156h158v-156h-158zM111 567v156h158v-156h-158zM111 756v156h158v-156h-158zM301 0v158h158v-158h-158zM491 0v158h158v-158h-158zM682 190v156h158v-156h-158zM872 0v158h158v-158h-158zM872 190v156h158v-156h-158zM872 379v156 h158v-156h-158zM872 567v156h158v-156h-158zM872 756v156h158v-156h-158z" />
<glyph unicode="v" d="M111 379v156h158v-156h-158zM111 567v156h158v-156h-158zM111 756v156h158v-156h-158zM301 190v156h158v-156h-158zM491 0v158h158v-158h-158zM682 190v156h158v-156h-158zM872 379v156h158v-156h-158zM872 567v156h158v-156h-158zM872 756v156h158v-156h-158z" />
<glyph unicode="w" d="M111 190v156h158v-156h-158zM111 379v156h158v-156h-158zM111 567v156h158v-156h-158zM111 756v156h158v-156h-158zM301 0v158h158v-158h-158zM491 190v156h158v-156h-158zM491 379v156h158v-156h-158zM491 567v156h158v-156h-158zM682 0v158h158v-158h-158zM872 190v156 h158v-156h-158zM872 379v156h158v-156h-158zM872 567v156h158v-156h-158zM872 756v156h158v-156h-158z" />
<glyph unicode="x" d="M111 0v158h158v-158h-158zM111 756v156h158v-156h-158zM301 190v156h158v-156h-158zM301 756v156h158v-156h-158zM491 190v156h158v-156h-158zM491 379v156h158v-156h-158zM491 567v156h158v-156h-158zM682 0v158h158v-158h-158zM682 567v156h158v-156h-158zM872 0v158 h158v-158h-158zM872 756v156h158v-156h-158z" />
<glyph unicode="y" d="M111 190v156h158v-156h-158zM111 379v156h158v-156h-158zM111 567v156h158v-156h-158zM111 756v156h158v-156h-158zM301 0v158h158v-158h-158zM301 -222h158v-158h-158v158zM491 0v158h158v-158h-158zM491 -222h158v-158h-158v158zM682 0v158h158v-158h-158zM682 -222 h158v-158h-158v158zM872 0v158h158v-158h-158zM872 -32h158v-158h-158v158zM872 190v156h158v-156h-158zM872 379v156h158v-156h-158zM872 567v156h158v-156h-158zM872 756v156h158v-156h-158z" />
<glyph unicode="z" d="M111 0v158h158v-158h-158zM111 756v156h158v-156h-158zM301 0v158h158v-158h-158zM301 190v156h158v-156h-158zM301 756v156h158v-156h-158zM491 0v158h158v-158h-158zM491 379v156h158v-156h-158zM491 756v156h158v-156h-158zM682 0v158h158v-158h-158zM682 567v156h158 v-156h-158zM682 756v156h158v-156h-158zM872 0v158h158v-158h-158zM872 756v156h158v-156h-158z" />
<glyph unicode="{" d="M301 567v156h158v-156h-158zM491 190v156h158v-156h-158zM491 379v156h158v-156h-158zM491 756v156h158v-156h-158zM491 944v157h158v-157h-158zM682 0v158h158v-158h-158zM682 1133v156h158v-156h-158z" />
<glyph unicode="|" d="M491 0v158h158v-158h-158zM491 -32h158v-158h-158v158zM491 190v156h158v-156h-158zM491 -222h158v-158h-158v158zM491 379v156h158v-156h-158zM491 567v156h158v-156h-158zM491 756v156h158v-156h-158zM491 944v157h158v-157h-158zM491 1133v156h158v-156h-158z" />
<glyph unicode="}" d="M301 0v158h158v-158h-158zM301 1133v156h158v-156h-158zM491 190v156h158v-156h-158zM491 379v156h158v-156h-158zM491 756v156h158v-156h-158zM491 944v157h158v-157h-158zM682 567v156h158v-156h-158z" />
<glyph unicode="~" d="M111 567v156h158v-156h-158zM301 756v156h158v-156h-158zM491 567v156h158v-156h-158zM682 379v156h158v-156h-158zM872 567v156h158v-156h-158z" />
<glyph unicode="&#xa0;" />
<glyph unicode="&#xa1;" d="M491 0v158h158v-158h-158zM491 190v156h158v-156h-158zM491 379v156h158v-156h-158zM491 567v156h158v-156h-158zM491 756v156h158v-156h-158zM491 1133v156h158v-156h-158z" />
<glyph unicode="&#xa2;" d="M111 379v156h158v-156h-158zM111 567v156h158v-156h-158zM111 756v156h158v-156h-158zM301 190v156h158v-156h-158zM301 944v157h158v-157h-158zM491 0v158h158v-158h-158zM491 190v156h158v-156h-158zM491 379v156h158v-156h-158zM491 567v156h158v-156h-158zM491 756 v156h158v-156h-158zM491 944v157h158v-157h-158zM491 1133v156h158v-156h-158zM682 190v156h158v-156h-158zM682 944v157h158v-157h-158zM872 379v156h158v-156h-158zM872 723h158h-158zM872 756v156h158v-156h-158z" />
<glyph unicode="&#xa3;" d="M111 0v158h158v-158h-158zM111 567v156h158v-156h-158zM301 190v156h158v-156h-158zM301 379v156h158v-156h-158zM301 567v156h158v-156h-158zM301 756v156h158v-156h-158zM301 944v157h158v-157h-158zM491 0v158h158v-158h-158zM491 567v156h158v-156h-158zM491 1133 v156h158v-156h-158zM682 0v158h158v-158h-158zM682 1133v156h158v-156h-158zM872 0v158h158v-158h-158z" />
<glyph unicode="&#xa4;" d="M111 190v156h158v-156h-158zM111 944v157h158v-157h-158zM301 379v156h158v-156h-158zM301 567v156h158v-156h-158zM301 756v156h158v-156h-158zM491 379v156h158v-156h-158zM491 756v156h158v-156h-158zM682 379v156h158v-156h-158zM682 567v156h158v-156h-158zM682 756 v156h158v-156h-158zM872 190v156h158v-156h-158zM872 944v157h158v-157h-158z" />
<glyph unicode="&#xa5;" d="M111 379v156h158v-156h-158zM111 756v156h158v-156h-158zM111 1133v156h158v-156h-158zM301 379v156h158v-156h-158zM301 756v156h158v-156h-158zM301 944v157h158v-157h-158zM491 0v158h158v-158h-158zM491 190v156h158v-156h-158zM491 379v156h158v-156h-158zM491 567 v156h158v-156h-158zM491 756v156h158v-156h-158zM682 379v156h158v-156h-158zM682 756v156h158v-156h-158zM682 944v157h158v-157h-158zM872 379v156h158v-156h-158zM872 756v156h158v-156h-158zM872 1133v156h158v-156h-158z" />
<glyph unicode="&#xa6;" d="M491 0v158h158v-158h-158zM491 -32h158v-158h-158v158zM491 190v156h158v-156h-158zM491 -222h158v-158h-158v158zM491 567v156h158v-156h-158zM491 756v156h158v-156h-158zM491 944v157h158v-157h-158zM491 1133v156h158v-156h-158z" />
<glyph unicode="&#xa7;" d="M111 0v158h158v-158h-158zM111 567v156h158v-156h-158zM111 944v157h158v-157h-158zM301 0v158h158v-158h-158zM301 379v156h158v-156h-158zM301 756v156h158v-156h-158zM301 1133v156h158v-156h-158zM491 0v158h158v-158h-158zM491 379v156h158v-156h-158zM491 756v156 h158v-156h-158zM491 1133v156h158v-156h-158zM682 190v156h158v-156h-158zM682 567v156h158v-156h-158zM682 1133v156h158v-156h-158z" />
<glyph unicode="&#xa8;" d="M301 1133v156h158v-156h-158zM682 1133v156h158v-156h-158z" />
<glyph unicode="&#xa9;" horiz-adv-x="1218" d="M47 566q0 234 165 399t399 165t400.5 -165t166.5 -399t-167 -400t-400 -166q-234 0 -399 166t-165 400zM147 566q0 -193 135 -330.5t329 -137.5q195 0 331 137.5t136 330.5t-136 328.5t-331 135.5q-193 0 -328.5 -135.5t-135.5 -328.5zM306 566q0 142 85.5 240t219.5 98 q132 0 212 -81q71 -69 71 -156h-103q0 52 -43 94q-50 48 -137 48q-102 0 -158 -84q-47 -69 -47 -159t47 -160q56 -87 158 -87q85 0 137 50q44 42 43 93h103q0 -89 -71 -157q-81 -81 -212 -81q-134 0 -219.5 99t-85.5 243z" />
<glyph unicode="&#xaa;" d="M111 0v158h158v-158h-158zM111 567v156h158v-156h-158zM301 0v158h158v-158h-158zM301 379v156h158v-156h-158zM301 756v156h158v-156h-158zM301 1133v156h158v-156h-158zM491 0v158h158v-158h-158zM491 379v156h158v-156h-158zM491 756v156h158v-156h-158zM491 1133v156 h158v-156h-158zM682 0v158h158v-158h-158zM682 379v156h158v-156h-158zM682 756v156h158v-156h-158zM682 1133v156h158v-156h-158zM872 0v158h158v-158h-158zM872 379v156h158v-156h-158zM872 567v156h158v-156h-158zM872 756v156h158v-156h-158zM872 944v157h158v-157h-158 z" />
<glyph unicode="&#xab;" d="M111 567v156h158v-156h-158zM301 379v156h158v-156h-158zM301 756v156h158v-156h-158zM682 567v156h158v-156h-158zM872 379v156h158v-156h-158zM872 756v156h158v-156h-158z" />
<glyph unicode="&#xac;" d="M111 756v156h158v-156h-158zM301 756v156h158v-156h-158zM491 756v156h158v-156h-158zM682 756v156h158v-156h-158zM872 379v156h158v-156h-158zM872 567v156h158v-156h-158zM872 756v156h158v-156h-158z" />
<glyph unicode="&#xad;" d="M111 567v156h158v-156h-158zM301 567v156h158v-156h-158zM491 567v156h158v-156h-158zM682 567v156h158v-156h-158zM872 567v156h158v-156h-158z" />
<glyph unicode="&#xae;" horiz-adv-x="1218" d="M47 566q0 234 165 399t399 165t400.5 -165t166.5 -399t-167 -400t-400 -166q-234 0 -399 166t-165 400zM147 566q0 -193 135 -330.5t329 -137.5q195 0 331 137.5t136 330.5t-136 328.5t-331 135.5q-193 0 -328.5 -135.5t-135.5 -328.5zM382 240v651h243q238 0 239 -192 q0 -106 -71 -156q55 -52 55 -161q0 -78 37 -142h-113q-23 48 -23 142q0 124 -127 124h-142v-266h-98zM480 604h153q132 0 132 95q0 93 -132 94h-153v-189z" />
<glyph unicode="&#xaf;" d="M111 1133v156h158v-156h-158zM301 1133v156h158v-156h-158zM491 1133v156h158v-156h-158zM682 1133v156h158v-156h-158zM872 1133v156h158v-156h-158z" />
<glyph unicode="&#xb0;" d="M301 944v157h158v-157h-158zM491 756v156h158v-156h-158zM491 1133v156h158v-156h-158zM682 944v157h158v-157h-158z" />
<glyph unicode="&#xb1;" d="M111 0v158h158v-158h-158zM111 756v156h158v-156h-158zM301 0v158h158v-158h-158zM301 756v156h158v-156h-158zM491 0v158h158v-158h-158zM491 379v156h158v-156h-158zM491 567v156h158v-156h-158zM491 756v156h158v-156h-158zM491 944v157h158v-157h-158zM491 1133v156 h158v-156h-158zM682 0v158h158v-158h-158zM682 756v156h158v-156h-158zM872 0v158h158v-158h-158zM872 756v156h158v-156h-158z" />
<glyph unicode="&#xb2;" d="M301 567v156h158v-156h-158zM301 1133v156h158v-156h-158zM491 567v156h158v-156h-158zM491 756v156h158v-156h-158zM491 1133v156h158v-156h-158zM682 567v156h158v-156h-158zM682 944v157h158v-157h-158z" />
<glyph unicode="&#xb3;" d="M301 567v156h158v-156h-158zM301 1133v156h158v-156h-158zM491 567v156h158v-156h-158zM491 944v157h158v-157h-158zM491 1133v156h158v-156h-158zM682 756v156h158v-156h-158zM682 1133v156h158v-156h-158z" />
<glyph unicode="&#xb4;" d="M491 1134v157h158v-157h-158zM682 1323v156h158v-156h-158z" />
<glyph unicode="&#xb6;" d="M111 756v156h158v-156h-158zM111 944v157h158v-157h-158zM301 567v156h158v-156h-158zM301 1133v156h158v-156h-158zM491 0v158h158v-158h-158zM491 190v156h158v-156h-158zM491 379v156h158v-156h-158zM491 567v156h158v-156h-158zM491 756v156h158v-156h-158zM491 944 v157h158v-157h-158zM491 1133v156h158v-156h-158zM682 1133v156h158v-156h-158zM872 0v158h158v-158h-158zM872 190v156h158v-156h-158zM872 379v156h158v-156h-158zM872 567v156h158v-156h-158zM872 756v156h158v-156h-158zM872 944v157h158v-157h-158zM872 1133v156h158 v-156h-158z" />
<glyph unicode="&#xb7;" d="M301 380v158h158v-158h-158zM301 570v157h158v-157h-158zM491 380v158h158v-158h-158zM491 570v157h158v-157h-158z" />
<glyph unicode="&#xb8;" d="M301 -222h158v-158h-158v158zM491 -2v157h158v-157h-158zM491 -222h158v-158h-158v158zM682 -34h158v-156h-158v156z" />
<glyph unicode="&#xb9;" d="M301 1133v156h158v-156h-158zM491 567v156h158v-156h-158zM491 756v156h158v-156h-158zM491 944v157h158v-157h-158zM491 1133v156h158v-156h-158z" />
<glyph unicode="&#xba;" d="M111 0v158h158v-158h-158zM111 567v156h158v-156h-158zM111 756v156h158v-156h-158zM111 944v157h158v-157h-158zM301 0v158h158v-158h-158zM301 379v156h158v-156h-158zM301 1133v156h158v-156h-158zM491 0v158h158v-158h-158zM491 379v156h158v-156h-158zM491 1133v156 h158v-156h-158zM682 0v158h158v-158h-158zM682 379v156h158v-156h-158zM682 1133v156h158v-156h-158zM872 0v158h158v-158h-158zM872 567v156h158v-156h-158zM872 756v156h158v-156h-158zM872 944v157h158v-157h-158z" />
<glyph unicode="&#xbb;" d="M111 379v156h158v-156h-158zM111 756v156h158v-156h-158zM301 567v156h158v-156h-158zM682 379v156h158v-156h-158zM682 756v156h158v-156h-158zM872 567v156h158v-156h-158z" />
<glyph unicode="&#xbc;" d="M111 190v156h158v-156h-158zM111 1133v156h158v-156h-158zM301 379v156h158v-156h-158zM301 567v156h158v-156h-158zM301 756v156h158v-156h-158zM301 944v157h158v-157h-158zM301 1133v156h158v-156h-158zM491 190v156h158v-156h-158zM491 567v156h158v-156h-158z M682 190v156h158v-156h-158zM682 379v156h158v-156h-158zM682 756v156h158v-156h-158zM872 0v158h158v-158h-158zM872 190v156h158v-156h-158zM872 379v156h158v-156h-158zM872 567v156h158v-156h-158zM872 944v157h158v-157h-158z" />
<glyph unicode="&#xbd;" horiz-adv-x="1322" d="M111 190v156h158v-156h-158zM111 1133v156h158v-156h-158zM301 379v156h158v-156h-158zM301 567v156h158v-156h-158zM301 756v156h158v-156h-158zM301 944v157h158v-157h-158zM301 1133v156h158v-156h-158zM491 566v156h158v-156h-158zM682 0v156h158v-156h-158zM682 566 v156h158v-156h-158zM682 756v156h158v-156h-158zM872 0v156h158v-156h-158zM872 189v156h158v-156h-158zM872 566v156h158v-156h-158zM872 944v157h158v-157h-158zM1062 0v156h158v-156h-158zM1062 377v156h158v-156h-158z" />
<glyph unicode="&#xbe;" horiz-adv-x="1322" d="M111 567v156h158v-156h-158zM111 1133v156h158v-156h-158zM301 190v156h158v-156h-158zM301 567v156h158v-156h-158zM301 944v157h158v-157h-158zM301 1133v156h158v-156h-158zM491 379v156h158v-156h-158zM491 756v156h158v-156h-158zM491 1133v156h158v-156h-158z M682 190v156h158v-156h-158zM682 567v156h158v-156h-158zM872 190v156h158v-156h-158zM872 379v156h158v-156h-158zM872 756v156h158v-156h-158zM1062 0v158h158v-158h-158zM1062 190v156h158v-156h-158zM1062 379v156h158v-156h-158zM1062 567v156h158v-156h-158zM1062 944 v157h158v-157h-158z" />
<glyph unicode="&#xbf;" d="M111 190v156h158v-156h-158zM111 379v156h158v-156h-158zM301 0v158h158v-158h-158zM301 567v156h158v-156h-158zM491 0v158h158v-158h-158zM491 756v156h158v-156h-158zM491 1133v156h158v-156h-158zM682 0v158h158v-158h-158zM872 190v156h158v-156h-158z" />
<glyph unicode="&#xc0;" d="M111 0v158h158v-158h-158zM111 190v156h158v-156h-158zM111 379v156h158v-156h-158zM111 567v156h158v-156h-158zM111 756v156h158v-156h-158zM111 944v157h158v-157h-158zM301 567v156h158v-156h-158zM301 1133v156h158v-156h-158zM301 1513v156h158v-156h-158zM491 567 v156h158v-156h-158zM491 1133v156h158v-156h-158zM491 1324v157h158v-157h-158zM682 567v156h158v-156h-158zM682 1133v156h158v-156h-158zM872 0v158h158v-158h-158zM872 190v156h158v-156h-158zM872 379v156h158v-156h-158zM872 567v156h158v-156h-158zM872 756v156h158 v-156h-158zM872 944v157h158v-157h-158z" />
<glyph unicode="&#xc1;" d="M111 0v158h158v-158h-158zM111 190v156h158v-156h-158zM111 379v156h158v-156h-158zM111 567v156h158v-156h-158zM111 756v156h158v-156h-158zM111 944v157h158v-157h-158zM301 567v156h158v-156h-158zM301 1133v156h158v-156h-158zM491 567v156h158v-156h-158zM491 1133 v156h158v-156h-158zM491 1324v157h158v-157h-158zM682 567v156h158v-156h-158zM682 1133v156h158v-156h-158zM682 1513v156h158v-156h-158zM872 0v158h158v-158h-158zM872 190v156h158v-156h-158zM872 379v156h158v-156h-158zM872 567v156h158v-156h-158zM872 756v156h158 v-156h-158zM872 944v157h158v-157h-158z" />
<glyph unicode="&#xc2;" d="M111 0v158h158v-158h-158zM111 190v156h158v-156h-158zM111 379v156h158v-156h-158zM111 567v156h158v-156h-158zM111 756v156h158v-156h-158zM111 944v157h158v-157h-158zM301 567v156h158v-156h-158zM301 1133v156h158v-156h-158zM301 1324v157h158v-157h-158zM491 567 v156h158v-156h-158zM491 1133v156h158v-156h-158zM491 1513v156h158v-156h-158zM682 567v156h158v-156h-158zM682 1133v156h158v-156h-158zM682 1324v157h158v-157h-158zM872 0v158h158v-158h-158zM872 190v156h158v-156h-158zM872 379v156h158v-156h-158zM872 567v156h158 v-156h-158zM872 756v156h158v-156h-158zM872 944v157h158v-157h-158z" />
<glyph unicode="&#xc3;" d="M111 0v158h158v-158h-158zM111 190v156h158v-156h-158zM111 379v156h158v-156h-158zM111 567v156h158v-156h-158zM111 756v156h158v-156h-158zM111 944v157h158v-157h-158zM111 1324v157h158v-157h-158zM301 567v156h158v-156h-158zM301 1133v156h158v-156h-158z M301 1513v156h158v-156h-158zM491 567v156h158v-156h-158zM491 1133v156h158v-156h-158zM491 1324v157h158v-157h-158zM491 1513v156h158v-156h-158zM682 567v156h158v-156h-158zM682 1133v156h158v-156h-158zM682 1324v157h158v-157h-158zM872 0v158h158v-158h-158z M872 190v156h158v-156h-158zM872 379v156h158v-156h-158zM872 567v156h158v-156h-158zM872 756v156h158v-156h-158zM872 944v157h158v-157h-158zM872 1513v156h158v-156h-158z" />
<glyph unicode="&#xc4;" d="M111 0v158h158v-158h-158zM111 190v156h158v-156h-158zM111 379v156h158v-156h-158zM111 567v156h158v-156h-158zM111 756v156h158v-156h-158zM111 944v157h158v-157h-158zM301 567v156h158v-156h-158zM301 1133v156h158v-156h-158zM301 1513v156h158v-156h-158zM491 567 v156h158v-156h-158zM491 1133v156h158v-156h-158zM682 567v156h158v-156h-158zM682 1133v156h158v-156h-158zM682 1513v156h158v-156h-158zM872 0v158h158v-158h-158zM872 190v156h158v-156h-158zM872 379v156h158v-156h-158zM872 567v156h158v-156h-158zM872 756v156h158 v-156h-158zM872 944v157h158v-157h-158z" />
<glyph unicode="&#xc5;" d="M111 0v158h158v-158h-158zM111 190v156h158v-156h-158zM111 379v156h158v-156h-158zM111 567v156h158v-156h-158zM111 756v156h158v-156h-158zM111 944v157h158v-157h-158zM301 567v156h158v-156h-158zM301 1133v156h158v-156h-158zM301 1321v157h158v-157h-158z M301 1510v156h158v-156h-158zM491 567v156h158v-156h-158zM491 1133v156h158v-156h-158zM491 1510v156h158v-156h-158zM682 567v156h158v-156h-158zM682 1133v156h158v-156h-158zM682 1321v157h158v-157h-158zM682 1510v156h158v-156h-158zM872 0v158h158v-158h-158z M872 190v156h158v-156h-158zM872 379v156h158v-156h-158zM872 567v156h158v-156h-158zM872 756v156h158v-156h-158zM872 944v157h158v-157h-158z" />
<glyph unicode="&#xc6;" d="M111 0v158h158v-158h-158zM111 190v156h158v-156h-158zM111 379v156h158v-156h-158zM111 567v156h158v-156h-158zM111 756v156h158v-156h-158zM111 944v157h158v-157h-158zM301 567v156h158v-156h-158zM301 1133v156h158v-156h-158zM491 0v158h158v-158h-158zM491 190 v156h158v-156h-158zM491 379v156h158v-156h-158zM491 567v156h158v-156h-158zM491 756v156h158v-156h-158zM491 944v157h158v-157h-158zM491 1133v156h158v-156h-158zM682 0v158h158v-158h-158zM682 567v156h158v-156h-158zM682 1133v156h158v-156h-158zM872 0v158h158v-158 h-158zM872 567v156h158v-156h-158zM872 1133v156h158v-156h-158z" />
<glyph unicode="&#xc7;" d="M111 190v156h158v-156h-158zM111 379v156h158v-156h-158zM111 567v156h158v-156h-158zM111 756v156h158v-156h-158zM111 944v157h158v-157h-158zM301 0v158h158v-158h-158zM301 -222h158v-158h-158v158zM301 1133v156h158v-156h-158zM491 0v158h158v-158h-158zM491 -222 h158v-158h-158v158zM491 1133v156h158v-156h-158zM682 0v158h158v-158h-158zM682 -34h158v-156h-158v156zM682 1133v156h158v-156h-158zM872 190v156h158v-156h-158zM872 944v157h158v-157h-158z" />
<glyph unicode="&#xc8;" d="M111 0v158h158v-158h-158zM111 190v156h158v-156h-158zM111 379v156h158v-156h-158zM111 567v156h158v-156h-158zM111 756v156h158v-156h-158zM111 944v157h158v-157h-158zM111 1133v156h158v-156h-158zM301 0v158h158v-158h-158zM301 567v156h158v-156h-158zM301 1133 v156h158v-156h-158zM301 1513v156h158v-156h-158zM491 0v158h158v-158h-158zM491 567v156h158v-156h-158zM491 1133v156h158v-156h-158zM491 1324v157h158v-157h-158zM682 0v158h158v-158h-158zM682 567v156h158v-156h-158zM682 1133v156h158v-156h-158zM872 0v158h158v-158 h-158zM872 1133v156h158v-156h-158z" />
<glyph unicode="&#xc9;" d="M111 0v158h158v-158h-158zM111 190v156h158v-156h-158zM111 379v156h158v-156h-158zM111 567v156h158v-156h-158zM111 756v156h158v-156h-158zM111 944v157h158v-157h-158zM111 1133v156h158v-156h-158zM301 0v158h158v-158h-158zM301 567v156h158v-156h-158zM301 1133 v156h158v-156h-158zM491 0v158h158v-158h-158zM491 567v156h158v-156h-158zM491 1133v156h158v-156h-158zM491 1324v157h158v-157h-158zM682 0v158h158v-158h-158zM682 567v156h158v-156h-158zM682 1133v156h158v-156h-158zM682 1513v156h158v-156h-158zM872 0v158h158v-158 h-158zM872 1133v156h158v-156h-158z" />
<glyph unicode="&#xca;" d="M111 0v158h158v-158h-158zM111 190v156h158v-156h-158zM111 379v156h158v-156h-158zM111 567v156h158v-156h-158zM111 756v156h158v-156h-158zM111 944v157h158v-157h-158zM111 1133v156h158v-156h-158zM301 0v158h158v-158h-158zM301 567v156h158v-156h-158zM301 1133 v156h158v-156h-158zM301 1324v157h158v-157h-158zM491 0v158h158v-158h-158zM491 567v156h158v-156h-158zM491 1133v156h158v-156h-158zM491 1513v156h158v-156h-158zM682 0v158h158v-158h-158zM682 567v156h158v-156h-158zM682 1133v156h158v-156h-158zM682 1324v157h158 v-157h-158zM872 0v158h158v-158h-158zM872 1133v156h158v-156h-158z" />
<glyph unicode="&#xcb;" d="M111 0v158h158v-158h-158zM111 190v156h158v-156h-158zM111 379v156h158v-156h-158zM111 567v156h158v-156h-158zM111 756v156h158v-156h-158zM111 944v157h158v-157h-158zM111 1133v156h158v-156h-158zM301 0v158h158v-158h-158zM301 567v156h158v-156h-158zM301 1133 v156h158v-156h-158zM301 1513v156h158v-156h-158zM491 0v158h158v-158h-158zM491 567v156h158v-156h-158zM491 1133v156h158v-156h-158zM682 0v158h158v-158h-158zM682 567v156h158v-156h-158zM682 1133v156h158v-156h-158zM682 1513v156h158v-156h-158zM872 0v158h158v-158 h-158zM872 1133v156h158v-156h-158z" />
<glyph unicode="&#xcc;" d="M301 0v158h158v-158h-158zM301 1133v156h158v-156h-158zM301 1513v156h158v-156h-158zM491 0v158h158v-158h-158zM491 190v156h158v-156h-158zM491 379v156h158v-156h-158zM491 567v156h158v-156h-158zM491 756v156h158v-156h-158zM491 944v157h158v-157h-158zM491 1133 v156h158v-156h-158zM491 1324v157h158v-157h-158zM682 0v158h158v-158h-158zM682 1133v156h158v-156h-158z" />
<glyph unicode="&#xcd;" d="M301 0v158h158v-158h-158zM301 1133v156h158v-156h-158zM491 0v158h158v-158h-158zM491 190v156h158v-156h-158zM491 379v156h158v-156h-158zM491 567v156h158v-156h-158zM491 756v156h158v-156h-158zM491 944v157h158v-157h-158zM491 1133v156h158v-156h-158zM491 1324 v157h158v-157h-158zM682 0v158h158v-158h-158zM682 1133v156h158v-156h-158zM682 1513v156h158v-156h-158z" />
<glyph unicode="&#xce;" d="M301 0v158h158v-158h-158zM301 1133v156h158v-156h-158zM301 1324v157h158v-157h-158zM491 0v158h158v-158h-158zM491 190v156h158v-156h-158zM491 379v156h158v-156h-158zM491 567v156h158v-156h-158zM491 756v156h158v-156h-158zM491 944v157h158v-157h-158zM491 1133 v156h158v-156h-158zM491 1513v156h158v-156h-158zM682 0v158h158v-158h-158zM682 1133v156h158v-156h-158zM682 1324v157h158v-157h-158z" />
<glyph unicode="&#xcf;" d="M301 0v158h158v-158h-158zM301 1133v156h158v-156h-158zM301 1513v156h158v-156h-158zM491 0v158h158v-158h-158zM491 190v156h158v-156h-158zM491 379v156h158v-156h-158zM491 567v156h158v-156h-158zM491 756v156h158v-156h-158zM491 944v157h158v-157h-158zM491 1133 v156h158v-156h-158zM682 0v158h158v-158h-158zM682 1133v156h158v-156h-158zM682 1513v156h158v-156h-158z" />
<glyph unicode="&#xd0;" d="M111 567v156h158v-156h-158zM301 0v158h158v-158h-158zM301 190v156h158v-156h-158zM301 379v156h158v-156h-158zM301 567v156h158v-156h-158zM301 756v156h158v-156h-158zM301 944v157h158v-157h-158zM301 1133v156h158v-156h-158zM491 0v158h158v-158h-158zM491 567 v156h158v-156h-158zM491 1133v156h158v-156h-158zM682 0v158h158v-158h-158zM682 1133v156h158v-156h-158zM872 190v156h158v-156h-158zM872 379v156h158v-156h-158zM872 567v156h158v-156h-158zM872 756v156h158v-156h-158zM872 944v157h158v-157h-158z" />
<glyph unicode="&#xd1;" d="M111 0v158h158v-158h-158zM111 190v156h158v-156h-158zM111 379v156h158v-156h-158zM111 567v156h158v-156h-158zM111 756v156h158v-156h-158zM111 944v157h158v-157h-158zM111 1133v156h158v-156h-158zM111 1324v157h158v-157h-158zM301 756v156h158v-156h-158z M301 1513v156h158v-156h-158zM491 567v156h158v-156h-158zM491 1324v157h158v-157h-158zM491 1513v156h158v-156h-158zM682 379v156h158v-156h-158zM682 1324v157h158v-157h-158zM872 0v158h158v-158h-158zM872 190v156h158v-156h-158zM872 379v156h158v-156h-158zM872 567 v156h158v-156h-158zM872 756v156h158v-156h-158zM872 944v157h158v-157h-158zM872 1133v156h158v-156h-158zM872 1513v156h158v-156h-158z" />
<glyph unicode="&#xd2;" d="M111 190v156h158v-156h-158zM111 379v156h158v-156h-158zM111 567v156h158v-156h-158zM111 756v156h158v-156h-158zM111 944v157h158v-157h-158zM301 0v158h158v-158h-158zM301 1133v156h158v-156h-158zM301 1513v156h158v-156h-158zM491 0v158h158v-158h-158zM491 1133 v156h158v-156h-158zM491 1324v157h158v-157h-158zM682 0v158h158v-158h-158zM682 1133v156h158v-156h-158zM872 190v156h158v-156h-158zM872 379v156h158v-156h-158zM872 567v156h158v-156h-158zM872 756v156h158v-156h-158zM872 944v157h158v-157h-158z" />
<glyph unicode="&#xd3;" d="M111 190v156h158v-156h-158zM111 379v156h158v-156h-158zM111 567v156h158v-156h-158zM111 756v156h158v-156h-158zM111 944v157h158v-157h-158zM301 0v158h158v-158h-158zM301 1133v156h158v-156h-158zM491 0v158h158v-158h-158zM491 1133v156h158v-156h-158zM491 1324 v157h158v-157h-158zM682 0v158h158v-158h-158zM682 1133v156h158v-156h-158zM682 1513v156h158v-156h-158zM872 190v156h158v-156h-158zM872 379v156h158v-156h-158zM872 567v156h158v-156h-158zM872 756v156h158v-156h-158zM872 944v157h158v-157h-158z" />
<glyph unicode="&#xd4;" d="M111 190v156h158v-156h-158zM111 379v156h158v-156h-158zM111 567v156h158v-156h-158zM111 756v156h158v-156h-158zM111 944v157h158v-157h-158zM301 0v158h158v-158h-158zM301 1133v156h158v-156h-158zM301 1324v157h158v-157h-158zM491 0v158h158v-158h-158zM491 1133 v156h158v-156h-158zM491 1513v156h158v-156h-158zM682 0v158h158v-158h-158zM682 1133v156h158v-156h-158zM682 1324v157h158v-157h-158zM872 190v156h158v-156h-158zM872 379v156h158v-156h-158zM872 567v156h158v-156h-158zM872 756v156h158v-156h-158zM872 944v157h158 v-157h-158z" />
<glyph unicode="&#xd5;" d="M111 190v156h158v-156h-158zM111 379v156h158v-156h-158zM111 567v156h158v-156h-158zM111 756v156h158v-156h-158zM111 944v157h158v-157h-158zM111 1324v157h158v-157h-158zM301 0v158h158v-158h-158zM301 1133v156h158v-156h-158zM301 1513v156h158v-156h-158zM491 0 v158h158v-158h-158zM491 1133v156h158v-156h-158zM491 1324v157h158v-157h-158zM491 1513v156h158v-156h-158zM682 0v158h158v-158h-158zM682 1133v156h158v-156h-158zM682 1324v157h158v-157h-158zM872 190v156h158v-156h-158zM872 379v156h158v-156h-158zM872 567v156h158 v-156h-158zM872 756v156h158v-156h-158zM872 944v157h158v-157h-158zM872 1513v156h158v-156h-158z" />
<glyph unicode="&#xd6;" d="M111 190v156h158v-156h-158zM111 379v156h158v-156h-158zM111 567v156h158v-156h-158zM111 756v156h158v-156h-158zM111 944v157h158v-157h-158zM301 0v158h158v-158h-158zM301 1133v156h158v-156h-158zM301 1513v156h158v-156h-158zM491 0v158h158v-158h-158zM491 1133 v156h158v-156h-158zM682 0v158h158v-158h-158zM682 1133v156h158v-156h-158zM682 1513v156h158v-156h-158zM872 190v156h158v-156h-158zM872 379v156h158v-156h-158zM872 567v156h158v-156h-158zM872 756v156h158v-156h-158zM872 944v157h158v-157h-158z" />
<glyph unicode="&#xd7;" d="M111 190v156h158v-156h-158zM111 944v157h158v-157h-158zM301 379v156h158v-156h-158zM301 756v156h158v-156h-158zM491 567v156h158v-156h-158zM682 379v156h158v-156h-158zM682 756v156h158v-156h-158zM872 190v156h158v-156h-158zM872 944v157h158v-157h-158z" />
<glyph unicode="&#xd8;" d="M111 379v156h158v-156h-158zM301 190v156h158v-156h-158zM301 379v156h158v-156h-158zM301 567v156h158v-156h-158zM301 756v156h158v-156h-158zM301 944v157h158v-157h-158zM491 0v158h158v-158h-158zM491 567v156h158v-156h-158zM491 1133v156h158v-156h-158zM682 190 v156h158v-156h-158zM682 379v156h158v-156h-158zM682 567v156h158v-156h-158zM682 756v156h158v-156h-158zM682 944v157h158v-157h-158zM872 756v156h158v-156h-158z" />
<glyph unicode="&#xd9;" d="M111 190v156h158v-156h-158zM111 379v156h158v-156h-158zM111 567v156h158v-156h-158zM111 756v156h158v-156h-158zM111 944v157h158v-157h-158zM111 1133v156h158v-156h-158zM301 0v158h158v-158h-158zM301 1513v156h158v-156h-158zM491 0v158h158v-158h-158zM491 1324 v157h158v-157h-158zM682 0v158h158v-158h-158zM872 190v156h158v-156h-158zM872 379v156h158v-156h-158zM872 567v156h158v-156h-158zM872 756v156h158v-156h-158zM872 944v157h158v-157h-158zM872 1133v156h158v-156h-158z" />
<glyph unicode="&#xda;" d="M111 190v156h158v-156h-158zM111 379v156h158v-156h-158zM111 567v156h158v-156h-158zM111 756v156h158v-156h-158zM111 944v157h158v-157h-158zM111 1133v156h158v-156h-158zM301 0v158h158v-158h-158zM491 0v158h158v-158h-158zM491 1324v157h158v-157h-158zM682 0v158 h158v-158h-158zM682 1513v156h158v-156h-158zM872 190v156h158v-156h-158zM872 379v156h158v-156h-158zM872 567v156h158v-156h-158zM872 756v156h158v-156h-158zM872 944v157h158v-157h-158zM872 1133v156h158v-156h-158z" />
<glyph unicode="&#xdb;" d="M111 190v156h158v-156h-158zM111 379v156h158v-156h-158zM111 567v156h158v-156h-158zM111 756v156h158v-156h-158zM111 944v157h158v-157h-158zM111 1133v156h158v-156h-158zM301 0v158h158v-158h-158zM301 1324v157h158v-157h-158zM491 0v158h158v-158h-158zM491 1513 v156h158v-156h-158zM682 0v158h158v-158h-158zM682 1324v157h158v-157h-158zM872 190v156h158v-156h-158zM872 379v156h158v-156h-158zM872 567v156h158v-156h-158zM872 756v156h158v-156h-158zM872 944v157h158v-157h-158zM872 1133v156h158v-156h-158z" />
<glyph unicode="&#xdc;" d="M111 190v156h158v-156h-158zM111 379v156h158v-156h-158zM111 567v156h158v-156h-158zM111 756v156h158v-156h-158zM111 944v157h158v-157h-158zM111 1133v156h158v-156h-158zM301 0v158h158v-158h-158zM301 1513v156h158v-156h-158zM491 0v158h158v-158h-158zM682 0v158 h158v-158h-158zM682 1513v156h158v-156h-158zM872 190v156h158v-156h-158zM872 379v156h158v-156h-158zM872 567v156h158v-156h-158zM872 756v156h158v-156h-158zM872 944v157h158v-157h-158zM872 1133v156h158v-156h-158z" />
<glyph unicode="&#xdd;" d="M111 944v157h158v-157h-158zM111 1133v156h158v-156h-158zM301 756v156h158v-156h-158zM491 0v158h158v-158h-158zM491 190v156h158v-156h-158zM491 379v156h158v-156h-158zM491 567v156h158v-156h-158zM491 1324v157h158v-157h-158zM682 756v156h158v-156h-158z M682 1513v156h158v-156h-158zM872 944v157h158v-157h-158zM872 1133v156h158v-156h-158z" />
<glyph unicode="&#xde;" d="M111 0v158h158v-158h-158zM111 190v156h158v-156h-158zM111 379v156h158v-156h-158zM111 567v156h158v-156h-158zM111 756v156h158v-156h-158zM111 944v157h158v-157h-158zM111 1133v156h158v-156h-158zM301 379v156h158v-156h-158zM301 944v157h158v-157h-158zM491 379 v156h158v-156h-158zM491 944v157h158v-157h-158zM682 379v156h158v-156h-158zM682 944v157h158v-157h-158zM872 567v156h158v-156h-158zM872 756v156h158v-156h-158z" />
<glyph unicode="&#xdf;" d="M111 0v156h158v-156h-158zM111 189v156h158v-156h-158zM111 379v156h158v-156h-158zM111 567v156h158v-156h-158zM111 756v156h158v-156h-158zM111 944v157h158v-157h-158zM301 1133v156h158v-156h-158zM491 0v156h158v-156h-158zM491 566v156h158v-156h-158zM491 1133 v156h158v-156h-158zM682 0v156h158v-156h-158zM682 566v156h158v-156h-158zM682 1133v156h158v-156h-158zM872 189v156h158v-156h-158zM872 377v156h158v-156h-158zM872 757v157h158v-157h-158zM872 944v157h158v-157h-158z" />
<glyph unicode="&#xe0;" d="M111 190v156h158v-156h-158zM301 0v158h158v-158h-158zM301 379v156h158v-156h-158zM301 756v156h158v-156h-158zM301 1323v156h158v-156h-158zM491 0v158h158v-158h-158zM491 379v156h158v-156h-158zM491 756v156h158v-156h-158zM491 1134v157h158v-157h-158zM682 0v158 h158v-158h-158zM682 379v156h158v-156h-158zM682 756v156h158v-156h-158zM872 0v158h158v-158h-158zM872 190v156h158v-156h-158zM872 379v156h158v-156h-158zM872 567v156h158v-156h-158z" />
<glyph unicode="&#xe1;" d="M111 190v156h158v-156h-158zM301 0v158h158v-158h-158zM301 379v156h158v-156h-158zM301 756v156h158v-156h-158zM491 0v158h158v-158h-158zM491 379v156h158v-156h-158zM491 756v156h158v-156h-158zM491 1134v157h158v-157h-158zM682 0v158h158v-158h-158zM682 379v156 h158v-156h-158zM682 756v156h158v-156h-158zM682 1323v156h158v-156h-158zM872 0v158h158v-158h-158zM872 190v156h158v-156h-158zM872 379v156h158v-156h-158zM872 567v156h158v-156h-158z" />
<glyph unicode="&#xe2;" d="M111 190v156h158v-156h-158zM301 0v158h158v-158h-158zM301 379v156h158v-156h-158zM301 756v156h158v-156h-158zM301 1134v157h158v-157h-158zM491 0v158h158v-158h-158zM491 379v156h158v-156h-158zM491 756v156h158v-156h-158zM491 1323v156h158v-156h-158zM682 0v158 h158v-158h-158zM682 379v156h158v-156h-158zM682 756v156h158v-156h-158zM682 1134v157h158v-157h-158zM872 0v158h158v-158h-158zM872 190v156h158v-156h-158zM872 379v156h158v-156h-158zM872 567v156h158v-156h-158z" />
<glyph unicode="&#xe3;" d="M111 190v156h158v-156h-158zM111 1134v157h158v-157h-158zM301 0v158h158v-158h-158zM301 379v156h158v-156h-158zM301 756v156h158v-156h-158zM301 1323v156h158v-156h-158zM491 0v158h158v-158h-158zM491 379v156h158v-156h-158zM491 756v156h158v-156h-158zM491 1134 v157h158v-157h-158zM491 1323v156h158v-156h-158zM682 0v158h158v-158h-158zM682 379v156h158v-156h-158zM682 756v156h158v-156h-158zM682 1134v157h158v-157h-158zM872 0v158h158v-158h-158zM872 190v156h158v-156h-158zM872 379v156h158v-156h-158zM872 567v156h158v-156 h-158zM872 1323v156h158v-156h-158z" />
<glyph unicode="&#xe4;" d="M111 190v156h158v-156h-158zM301 0v158h158v-158h-158zM301 379v156h158v-156h-158zM301 756v156h158v-156h-158zM301 1133v156h158v-156h-158zM491 0v158h158v-158h-158zM491 379v156h158v-156h-158zM491 756v156h158v-156h-158zM682 0v158h158v-158h-158zM682 379v156 h158v-156h-158zM682 756v156h158v-156h-158zM682 1133v156h158v-156h-158zM872 0v158h158v-158h-158zM872 190v156h158v-156h-158zM872 379v156h158v-156h-158zM872 567v156h158v-156h-158z" />
<glyph unicode="&#xe5;" d="M111 190v156h158v-156h-158zM301 0v158h158v-158h-158zM301 379v156h158v-156h-158zM301 756v156h158v-156h-158zM301 1136v156h158v-156h-158zM301 1325v156h158v-156h-158zM301 1513v156h158v-156h-158zM491 0v158h158v-158h-158zM491 379v156h158v-156h-158zM491 756 v156h158v-156h-158zM491 1136v156h158v-156h-158zM491 1513v156h158v-156h-158zM682 0v158h158v-158h-158zM682 379v156h158v-156h-158zM682 756v156h158v-156h-158zM682 1136v156h158v-156h-158zM682 1325v156h158v-156h-158zM682 1513v156h158v-156h-158zM872 0v158h158 v-158h-158zM872 190v156h158v-156h-158zM872 379v156h158v-156h-158zM872 567v156h158v-156h-158z" />
<glyph unicode="&#xe6;" d="M111 190v156h158v-156h-158zM111 756v156h158v-156h-158zM301 0v158h158v-158h-158zM301 379v156h158v-156h-158zM301 756v156h158v-156h-158zM491 0v158h158v-158h-158zM491 190v156h158v-156h-158zM491 379v156h158v-156h-158zM491 567v156h158v-156h-158zM682 0v158 h158v-158h-158zM682 379v156h158v-156h-158zM682 756v156h158v-156h-158zM872 0v158h158v-158h-158zM872 379v156h158v-156h-158zM872 567v156h158v-156h-158z" />
<glyph unicode="&#xe7;" d="M111 190v156h158v-156h-158zM111 379v156h158v-156h-158zM111 567v156h158v-156h-158zM301 0v158h158v-158h-158zM301 -221h158v-158h-158v158zM301 756v156h158v-156h-158zM491 0v158h158v-158h-158zM491 -221h158v-158h-158v158zM491 756v156h158v-156h-158zM682 0v158 h158v-158h-158zM682 -32h158v-157h-158v157zM682 756v156h158v-156h-158zM872 190v156h158v-156h-158z" />
<glyph unicode="&#xe8;" d="M111 190v156h158v-156h-158zM111 379v156h158v-156h-158zM111 567v156h158v-156h-158zM301 0v158h158v-158h-158zM301 379v156h158v-156h-158zM301 756v156h158v-156h-158zM301 1323v156h158v-156h-158zM491 0v158h158v-158h-158zM491 379v156h158v-156h-158zM491 756 v156h158v-156h-158zM491 1134v157h158v-157h-158zM682 0v158h158v-158h-158zM682 379v156h158v-156h-158zM682 756v156h158v-156h-158zM872 379v156h158v-156h-158zM872 567v156h158v-156h-158z" />
<glyph unicode="&#xe9;" d="M111 190v156h158v-156h-158zM111 379v156h158v-156h-158zM111 567v156h158v-156h-158zM301 0v158h158v-158h-158zM301 379v156h158v-156h-158zM301 756v156h158v-156h-158zM491 0v158h158v-158h-158zM491 379v156h158v-156h-158zM491 756v156h158v-156h-158zM491 1134 v157h158v-157h-158zM682 0v158h158v-158h-158zM682 379v156h158v-156h-158zM682 756v156h158v-156h-158zM682 1323v156h158v-156h-158zM872 379v156h158v-156h-158zM872 567v156h158v-156h-158z" />
<glyph unicode="&#xea;" d="M111 190v156h158v-156h-158zM111 379v156h158v-156h-158zM111 567v156h158v-156h-158zM301 0v158h158v-158h-158zM301 379v156h158v-156h-158zM301 756v156h158v-156h-158zM301 1134v157h158v-157h-158zM491 0v158h158v-158h-158zM491 379v156h158v-156h-158zM491 756 v156h158v-156h-158zM491 1323v156h158v-156h-158zM682 0v158h158v-158h-158zM682 379v156h158v-156h-158zM682 756v156h158v-156h-158zM682 1134v157h158v-157h-158zM872 379v156h158v-156h-158zM872 567v156h158v-156h-158z" />
<glyph unicode="&#xeb;" d="M111 190v156h158v-156h-158zM111 379v156h158v-156h-158zM111 567v156h158v-156h-158zM301 0v158h158v-158h-158zM301 379v156h158v-156h-158zM301 756v156h158v-156h-158zM301 1133v156h158v-156h-158zM491 0v158h158v-158h-158zM491 379v156h158v-156h-158zM491 756 v156h158v-156h-158zM682 0v158h158v-158h-158zM682 379v156h158v-156h-158zM682 756v156h158v-156h-158zM682 1133v156h158v-156h-158zM872 379v156h158v-156h-158zM872 567v156h158v-156h-158z" />
<glyph unicode="&#xec;" d="M301 0v158h158v-158h-158zM301 756v156h158v-156h-158zM301 1323v156h158v-156h-158zM491 0v158h158v-158h-158zM491 190v156h158v-156h-158zM491 379v156h158v-156h-158zM491 567v156h158v-156h-158zM491 756v156h158v-156h-158zM491 1134v157h158v-157h-158zM682 0v158 h158v-158h-158z" />
<glyph unicode="&#xed;" d="M301 0v158h158v-158h-158zM301 756v156h158v-156h-158zM491 0v158h158v-158h-158zM491 190v156h158v-156h-158zM491 379v156h158v-156h-158zM491 567v156h158v-156h-158zM491 756v156h158v-156h-158zM491 1134v157h158v-157h-158zM682 0v158h158v-158h-158zM682 1323v156 h158v-156h-158z" />
<glyph unicode="&#xee;" d="M301 0v158h158v-158h-158zM301 756v156h158v-156h-158zM301 1134v157h158v-157h-158zM491 0v158h158v-158h-158zM491 190v156h158v-156h-158zM491 379v156h158v-156h-158zM491 567v156h158v-156h-158zM491 756v156h158v-156h-158zM491 1323v156h158v-156h-158zM682 0v158 h158v-158h-158zM682 1134v157h158v-157h-158z" />
<glyph unicode="&#xef;" d="M301 0v158h158v-158h-158zM301 756v156h158v-156h-158zM301 1133v156h158v-156h-158zM491 0v158h158v-158h-158zM491 190v156h158v-156h-158zM491 379v156h158v-156h-158zM491 567v156h158v-156h-158zM491 756v156h158v-156h-158zM682 0v158h158v-158h-158zM682 1133v156 h158v-156h-158z" />
<glyph unicode="&#xf0;" d="M111 190v156h158v-156h-158zM111 379v156h158v-156h-158zM111 944v157h158v-157h-158zM301 0v158h158v-158h-158zM301 567v156h158v-156h-158zM301 944v157h158v-157h-158zM301 1133v156h158v-156h-158zM491 0v158h158v-158h-158zM491 567v156h158v-156h-158zM491 756 v156h158v-156h-158zM491 944v157h158v-157h-158zM682 190v156h158v-156h-158zM682 379v156h158v-156h-158zM682 567v156h158v-156h-158zM682 944v157h158v-157h-158z" />
<glyph unicode="&#xf1;" d="M111 0v158h158v-158h-158zM111 190v156h158v-156h-158zM111 379v156h158v-156h-158zM111 567v156h158v-156h-158zM111 756v156h158v-156h-158zM111 1134v157h158v-157h-158zM301 567v156h158v-156h-158zM301 1323v156h158v-156h-158zM491 756v156h158v-156h-158z M491 1134v157h158v-157h-158zM491 1323v156h158v-156h-158zM682 756v156h158v-156h-158zM682 1134v157h158v-157h-158zM872 0v158h158v-158h-158zM872 190v156h158v-156h-158zM872 379v156h158v-156h-158zM872 567v156h158v-156h-158zM872 1323v156h158v-156h-158z" />
<glyph unicode="&#xf2;" d="M111 190v156h158v-156h-158zM111 379v156h158v-156h-158zM111 567v156h158v-156h-158zM301 0v158h158v-158h-158zM301 756v156h158v-156h-158zM301 1323v156h158v-156h-158zM491 0v158h158v-158h-158zM491 756v156h158v-156h-158zM491 1134v157h158v-157h-158zM682 0v158 h158v-158h-158zM682 756v156h158v-156h-158zM872 190v156h158v-156h-158zM872 379v156h158v-156h-158zM872 567v156h158v-156h-158z" />
<glyph unicode="&#xf3;" d="M111 190v156h158v-156h-158zM111 379v156h158v-156h-158zM111 567v156h158v-156h-158zM301 0v158h158v-158h-158zM301 756v156h158v-156h-158zM491 0v158h158v-158h-158zM491 756v156h158v-156h-158zM491 1134v157h158v-157h-158zM682 0v158h158v-158h-158zM682 756v156 h158v-156h-158zM682 1323v156h158v-156h-158zM872 190v156h158v-156h-158zM872 379v156h158v-156h-158zM872 567v156h158v-156h-158z" />
<glyph unicode="&#xf4;" d="M111 190v156h158v-156h-158zM111 379v156h158v-156h-158zM111 567v156h158v-156h-158zM301 0v158h158v-158h-158zM301 756v156h158v-156h-158zM301 1134v157h158v-157h-158zM491 0v158h158v-158h-158zM491 756v156h158v-156h-158zM491 1323v156h158v-156h-158zM682 0v158 h158v-158h-158zM682 756v156h158v-156h-158zM682 1134v157h158v-157h-158zM872 190v156h158v-156h-158zM872 379v156h158v-156h-158zM872 567v156h158v-156h-158z" />
<glyph unicode="&#xf5;" d="M111 190v156h158v-156h-158zM111 379v156h158v-156h-158zM111 567v156h158v-156h-158zM111 1134v157h158v-157h-158zM301 0v158h158v-158h-158zM301 756v156h158v-156h-158zM301 1323v156h158v-156h-158zM491 0v158h158v-158h-158zM491 756v156h158v-156h-158zM491 1134 v157h158v-157h-158zM491 1323v156h158v-156h-158zM682 0v158h158v-158h-158zM682 756v156h158v-156h-158zM682 1134v157h158v-157h-158zM872 190v156h158v-156h-158zM872 379v156h158v-156h-158zM872 567v156h158v-156h-158zM872 1323v156h158v-156h-158z" />
<glyph unicode="&#xf6;" d="M111 190v156h158v-156h-158zM111 379v156h158v-156h-158zM111 567v156h158v-156h-158zM301 0v158h158v-158h-158zM301 756v156h158v-156h-158zM301 1133v156h158v-156h-158zM491 0v158h158v-158h-158zM491 756v156h158v-156h-158zM682 0v158h158v-158h-158zM682 756v156 h158v-156h-158zM682 1133v156h158v-156h-158zM872 190v156h158v-156h-158zM872 379v156h158v-156h-158zM872 567v156h158v-156h-158z" />
<glyph unicode="&#xf7;" d="M111 567v156h158v-156h-158zM301 567v156h158v-156h-158zM491 190v156h158v-156h-158zM491 567v156h158v-156h-158zM491 944v157h158v-157h-158zM682 567v156h158v-156h-158zM872 567v156h158v-156h-158z" />
<glyph unicode="&#xf8;" d="M111 190v156h158v-156h-158zM301 190v156h158v-156h-158zM301 379v156h158v-156h-158zM301 567v156h158v-156h-158zM491 0v158h158v-158h-158zM491 379v156h158v-156h-158zM491 756v156h158v-156h-158zM682 190v156h158v-156h-158zM682 379v156h158v-156h-158zM682 567 v156h158v-156h-158zM872 567v156h158v-156h-158z" />
<glyph unicode="&#xf9;" d="M111 190v156h158v-156h-158zM111 379v156h158v-156h-158zM111 567v156h158v-156h-158zM111 756v156h158v-156h-158zM301 0v158h158v-158h-158zM301 1323v156h158v-156h-158zM491 0v158h158v-158h-158zM491 1134v157h158v-157h-158zM682 190v156h158v-156h-158zM872 0v158 h158v-158h-158zM872 190v156h158v-156h-158zM872 379v156h158v-156h-158zM872 567v156h158v-156h-158zM872 756v156h158v-156h-158z" />
<glyph unicode="&#xfa;" d="M111 190v156h158v-156h-158zM111 379v156h158v-156h-158zM111 567v156h158v-156h-158zM111 756v156h158v-156h-158zM301 0v158h158v-158h-158zM491 0v158h158v-158h-158zM491 1134v157h158v-157h-158zM682 190v156h158v-156h-158zM682 1323v156h158v-156h-158zM872 0v158 h158v-158h-158zM872 190v156h158v-156h-158zM872 379v156h158v-156h-158zM872 567v156h158v-156h-158zM872 756v156h158v-156h-158z" />
<glyph unicode="&#xfb;" d="M111 190v156h158v-156h-158zM111 379v156h158v-156h-158zM111 567v156h158v-156h-158zM111 756v156h158v-156h-158zM301 0v158h158v-158h-158zM301 1134v157h158v-157h-158zM491 0v158h158v-158h-158zM491 1323v156h158v-156h-158zM682 190v156h158v-156h-158zM682 1134 v157h158v-157h-158zM872 0v158h158v-158h-158zM872 190v156h158v-156h-158zM872 379v156h158v-156h-158zM872 567v156h158v-156h-158zM872 756v156h158v-156h-158z" />
<glyph unicode="&#xfc;" d="M111 190v156h158v-156h-158zM111 379v156h158v-156h-158zM111 567v156h158v-156h-158zM111 756v156h158v-156h-158zM301 0v158h158v-158h-158zM301 1133v156h158v-156h-158zM491 0v158h158v-158h-158zM682 190v156h158v-156h-158zM682 1133v156h158v-156h-158zM872 0v158 h158v-158h-158zM872 190v156h158v-156h-158zM872 379v156h158v-156h-158zM872 567v156h158v-156h-158zM872 756v156h158v-156h-158z" />
<glyph unicode="&#xfd;" d="M111 190v156h158v-156h-158zM111 379v156h158v-156h-158zM111 567v156h158v-156h-158zM111 756v156h158v-156h-158zM301 0v158h158v-158h-158zM301 -222h158v-158h-158v158zM491 0v158h158v-158h-158zM491 -222h158v-158h-158v158zM491 1134v157h158v-157h-158zM682 0 v158h158v-158h-158zM682 -222h158v-158h-158v158zM682 1323v156h158v-156h-158zM872 0v158h158v-158h-158zM872 -32h158v-158h-158v158zM872 190v156h158v-156h-158zM872 379v156h158v-156h-158zM872 567v156h158v-156h-158zM872 756v156h158v-156h-158z" />
<glyph unicode="&#xfe;" d="M111 0v158h158v-158h-158zM111 190v156h158v-156h-158zM111 379v156h158v-156h-158zM111 567v156h158v-156h-158zM111 756v156h158v-156h-158zM111 944v157h158v-157h-158zM111 1133v156h158v-156h-158zM301 379v156h158v-156h-158zM301 944v157h158v-157h-158zM491 379 v156h158v-156h-158zM491 944v157h158v-157h-158zM682 379v156h158v-156h-158zM682 944v157h158v-157h-158zM872 567v156h158v-156h-158zM872 756v156h158v-156h-158z" />
<glyph unicode="&#xff;" d="M111 190v156h158v-156h-158zM111 379v156h158v-156h-158zM111 567v156h158v-156h-158zM111 756v156h158v-156h-158zM301 0v158h158v-158h-158zM301 -222h158v-158h-158v158zM301 1133v156h158v-156h-158zM491 0v158h158v-158h-158zM491 -222h158v-158h-158v158zM682 0 v158h158v-158h-158zM682 -222h158v-158h-158v158zM682 1133v156h158v-156h-158zM872 0v158h158v-158h-158zM872 -32h158v-158h-158v158zM872 190v156h158v-156h-158zM872 379v156h158v-156h-158zM872 567v156h158v-156h-158zM872 756v156h158v-156h-158z" />
<glyph unicode="&#x152;" d="M111 190v156h158v-156h-158zM111 379v156h158v-156h-158zM111 567v156h158v-156h-158zM111 756v156h158v-156h-158zM111 944v157h158v-157h-158zM301 0v158h158v-158h-158zM301 1133v156h158v-156h-158zM491 0v158h158v-158h-158zM491 190v156h158v-156h-158zM491 379 v156h158v-156h-158zM491 567v156h158v-156h-158zM491 756v156h158v-156h-158zM491 944v157h158v-157h-158zM491 1133v156h158v-156h-158zM682 0v158h158v-158h-158zM682 567v156h158v-156h-158zM682 1133v156h158v-156h-158zM872 0v158h158v-158h-158zM872 567v156h158v-156 h-158zM872 1133v156h158v-156h-158z" />
<glyph unicode="&#x153;" d="M111 190v156h158v-156h-158zM111 379v156h158v-156h-158zM111 567v156h158v-156h-158zM301 0v158h158v-158h-158zM301 756v156h158v-156h-158zM491 0v158h158v-158h-158zM491 190v156h158v-156h-158zM491 379v156h158v-156h-158zM491 567v156h158v-156h-158zM491 756v156 h158v-156h-158zM682 0v158h158v-158h-158zM682 379v156h158v-156h-158zM682 756v156h158v-156h-158zM872 0v158h158v-158h-158zM872 379v156h158v-156h-158zM872 567v156h158v-156h-158z" />
<glyph unicode="&#x178;" d="M111 944v157h158v-157h-158zM111 1133v156h158v-156h-158zM301 756v156h158v-156h-158zM301 1513v156h158v-156h-158zM491 0v158h158v-158h-158zM491 190v156h158v-156h-158zM491 379v156h158v-156h-158zM491 567v156h158v-156h-158zM682 756v156h158v-156h-158z M682 1513v156h158v-156h-158zM872 944v157h158v-157h-158zM872 1133v156h158v-156h-158z" />
<glyph unicode="&#x2c6;" d="M301 1134v157h158v-157h-158zM491 1323v156h158v-156h-158zM682 1134v157h158v-157h-158z" />
<glyph unicode="&#x2dc;" d="M111 1134v157h158v-157h-158zM301 1323v156h158v-156h-158zM491 1134v157h158v-157h-158zM491 1323v156h158v-156h-158zM682 1134v157h158v-157h-158zM872 1323v156h158v-156h-158z" />
<glyph unicode="&#x2000;" horiz-adv-x="834" />
<glyph unicode="&#x2001;" horiz-adv-x="1669" />
<glyph unicode="&#x2002;" horiz-adv-x="834" />
<glyph unicode="&#x2003;" horiz-adv-x="1669" />
<glyph unicode="&#x2004;" horiz-adv-x="556" />
<glyph unicode="&#x2005;" horiz-adv-x="417" />
<glyph unicode="&#x2006;" horiz-adv-x="278" />
<glyph unicode="&#x2007;" horiz-adv-x="278" />
<glyph unicode="&#x2008;" horiz-adv-x="208" />
<glyph unicode="&#x2009;" horiz-adv-x="333" />
<glyph unicode="&#x200a;" horiz-adv-x="92" />
<glyph unicode="&#x2010;" d="M111 567v156h158v-156h-158zM301 567v156h158v-156h-158zM491 567v156h158v-156h-158zM682 567v156h158v-156h-158zM872 567v156h158v-156h-158z" />
<glyph unicode="&#x2011;" d="M111 567v156h158v-156h-158zM301 567v156h158v-156h-158zM491 567v156h158v-156h-158zM682 567v156h158v-156h-158zM872 567v156h158v-156h-158z" />
<glyph unicode="&#x2012;" d="M111 567v156h158v-156h-158zM301 567v156h158v-156h-158zM491 567v156h158v-156h-158zM682 567v156h158v-156h-158zM872 567v156h158v-156h-158z" />
<glyph unicode="&#x2013;" d="M111 567v156h158v-156h-158zM301 567v156h158v-156h-158zM491 567v156h158v-156h-158zM682 567v156h158v-156h-158zM872 567v156h158v-156h-158z" />
<glyph unicode="&#x2014;" d="M111 567v156h158v-156h-158zM301 567v156h158v-156h-158zM491 567v156h158v-156h-158zM682 567v156h158v-156h-158zM872 567v156h158v-156h-158z" />
<glyph unicode="&#x2018;" d="M301 756v156h158v-156h-158zM301 944v157h158v-157h-158zM491 756v156h158v-156h-158zM491 1133v156h158v-156h-158z" />
<glyph unicode="&#x2019;" d="M301 756v156h158v-156h-158zM301 1133v156h158v-156h-158zM491 944v157h158v-157h-158zM491 1133v156h158v-156h-158z" />
<glyph unicode="&#x201a;" d="M301 0v156h158v-156h-158zM301 -221h158v-156h-158v156zM491 0v156h158v-156h-158zM491 -32h158v-157h-158v157z" />
<glyph unicode="&#x201c;" d="M111 756v156h158v-156h-158zM111 944v157h158v-157h-158zM301 756v156h158v-156h-158zM301 1133v156h158v-156h-158zM682 756v156h158v-156h-158zM682 944v157h158v-157h-158zM872 756v156h158v-156h-158zM872 1133v156h158v-156h-158z" />
<glyph unicode="&#x201d;" d="M111 756v156h158v-156h-158zM111 1133v156h158v-156h-158zM301 944v157h158v-157h-158zM301 1133v156h158v-156h-158zM682 756v156h158v-156h-158zM682 1133v156h158v-156h-158zM872 944v157h158v-157h-158zM872 1133v156h158v-156h-158z" />
<glyph unicode="&#x201e;" d="M111 0v156h158v-156h-158zM111 -221h158v-156h-158v156zM301 0v156h158v-156h-158zM301 -32h158v-157h-158v157zM682 0v156h158v-156h-158zM682 -221h158v-156h-158v156zM872 0v156h158v-156h-158zM872 -32h158v-157h-158v157z" />
<glyph unicode="&#x2022;" d="M111 379v156h158v-156h-158zM111 567v156h158v-156h-158zM301 190v156h158v-156h-158zM301 379v156h158v-156h-158zM301 567v156h158v-156h-158zM301 756v156h158v-156h-158zM491 190v156h158v-156h-158zM491 379v156h158v-156h-158zM491 567v156h158v-156h-158zM491 756 v156h158v-156h-158zM682 379v156h158v-156h-158zM682 567v156h158v-156h-158z" />
<glyph unicode="&#x2026;" d="M111 0v158h158v-158h-158zM491 0v158h158v-158h-158zM872 0v158h158v-158h-158z" />
<glyph unicode="&#x202f;" horiz-adv-x="333" />
<glyph unicode="&#x2039;" d="M301 567v156h158v-156h-158zM491 379v156h158v-156h-158zM491 756v156h158v-156h-158z" />
<glyph unicode="&#x203a;" d="M301 379v156h158v-156h-158zM301 756v156h158v-156h-158zM491 567v156h158v-156h-158z" />
<glyph unicode="&#x205f;" horiz-adv-x="417" />
<glyph unicode="&#x2122;" horiz-adv-x="1113" d="M48 1197v92h419v-92h-162v-474h-96v474h-161zM509 723v566h124l158 -419l158 419h124v-566h-95v369l-138 -367h-99l-137 367v-369h-95z" />
<glyph unicode="&#x25fc;" horiz-adv-x="910" d="M0 0v910h910v-910h-910z" />
</font>
</defs>
</svg>
